{
    "asset" : {
        "generator" : "Khronos glTF Blender I/O v1.8.19",
        "version" : "2.0"
    },
    "scene" : 0,
    "scenes" : [
        {
            "name" : "Scene",
            "nodes" : [
                0
            ]
        }
    ],
    "nodes" : [
        {
            "mesh" : 0,
            "name" : "Bush-05"
        }
    ],
    "materials" : [
        {
            "doubleSided" : true,
            "name" : "trunk-01",
            "pbrMetallicRoughness" : {
                "baseColorTexture" : {
                    "index" : 0
                },
                "metallicFactor" : 0
            }
        },
        {
            "alphaCutoff" : 0.5,
            "alphaMode" : "MASK",
            "doubleSided" : true,
            "name" : "branch-1-01",
            "pbrMetallicRoughness" : {
                "baseColorTexture" : {
                    "index" : 1
                },
                "metallicFactor" : 0
            }
        },
        {
            "alphaCutoff" : 0.5,
            "alphaMode" : "MASK",
            "doubleSided" : true,
            "name" : "branch-1-02",
            "pbrMetallicRoughness" : {
                "baseColorTexture" : {
                    "index" : 2
                },
                "metallicFactor" : 0,
                "roughnessFactor" : 0.5
            }
        }
    ],
    "meshes" : [
        {
            "name" : "BezierCurve.027",
            "primitives" : [
                {
                    "attributes" : {
                        "POSITION" : 0,
                        "NORMAL" : 1,
                        "TEXCOORD_0" : 2
                    },
                    "indices" : 3,
                    "material" : 0
                },
                {
                    "attributes" : {
                        "POSITION" : 4,
                        "NORMAL" : 5,
                        "TEXCOORD_0" : 6
                    },
                    "indices" : 7,
                    "material" : 1
                },
                {
                    "attributes" : {
                        "POSITION" : 8,
                        "NORMAL" : 9,
                        "TEXCOORD_0" : 10
                    },
                    "indices" : 11,
                    "material" : 2
                }
            ]
        }
    ],
    "textures" : [
        {
            "sampler" : 0,
            "source" : 0
        },
        {
            "sampler" : 0,
            "source" : 1
        },
        {
            "sampler" : 0,
            "source" : 2
        }
    ],
    "images" : [
        {
            "mimeType" : "image/jpeg",
            "name" : "Image_0_t03",
            "uri" : "Textures/Image_0_t03.jpg"
        },
        {
            "mimeType" : "image/png",
            "name" : "Image_2_t01_3",
            "uri" : "Textures/Image_2_t01_3.png"
        },
        {
            "mimeType" : "image/png",
            "name" : "Image_2_t01",
            "uri" : "Textures/Image_2_t01.png"
        }
    ],
    "accessors" : [
        {
            "bufferView" : 0,
            "componentType" : 5126,
            "count" : 283,
            "max" : [
                0.3828623294830322,
                1.9231780767440796,
                0.7699260711669922
            ],
            "min" : [
                -0.6543300151824951,
                -0.00673067569732666,
                -0.4331989288330078
            ],
            "type" : "VEC3"
        },
        {
            "bufferView" : 1,
            "componentType" : 5126,
            "count" : 283,
            "type" : "VEC3"
        },
        {
            "bufferView" : 2,
            "componentType" : 5126,
            "count" : 283,
            "type" : "VEC2"
        },
        {
            "bufferView" : 3,
            "componentType" : 5123,
            "count" : 537,
            "type" : "SCALAR"
        },
        {
            "bufferView" : 4,
            "componentType" : 5126,
            "count" : 165,
            "max" : [
                1.9567499160766602,
                2.185898780822754,
                1.6120243072509766
            ],
            "min" : [
                -2.094125747680664,
                0.05084633827209473,
                -2.428434371948242
            ],
            "type" : "VEC3"
        },
        {
            "bufferView" : 5,
            "componentType" : 5126,
            "count" : 165,
            "type" : "VEC3"
        },
        {
            "bufferView" : 6,
            "componentType" : 5126,
            "count" : 165,
            "type" : "VEC2"
        },
        {
            "bufferView" : 7,
            "componentType" : 5123,
            "count" : 432,
            "type" : "SCALAR"
        },
        {
            "bufferView" : 8,
            "componentType" : 5126,
            "count" : 287,
            "max" : [
                2.13852596282959,
                2.2336995601654053,
                2.1971397399902344
            ],
            "min" : [
                -1.666643738746643,
                0.0021976232528686523,
                -2.3456172943115234
            ],
            "type" : "VEC3"
        },
        {
            "bufferView" : 9,
            "componentType" : 5126,
            "count" : 287,
            "type" : "VEC3"
        },
        {
            "bufferView" : 10,
            "componentType" : 5126,
            "count" : 287,
            "type" : "VEC2"
        },
        {
            "bufferView" : 11,
            "componentType" : 5123,
            "count" : 696,
            "type" : "SCALAR"
        }
    ],
    "bufferViews" : [
        {
            "buffer" : 0,
            "byteLength" : 3396,
            "byteOffset" : 0
        },
        {
            "buffer" : 0,
            "byteLength" : 3396,
            "byteOffset" : 3396
        },
        {
            "buffer" : 0,
            "byteLength" : 2264,
            "byteOffset" : 6792
        },
        {
            "buffer" : 0,
            "byteLength" : 1074,
            "byteOffset" : 9056
        },
        {
            "buffer" : 0,
            "byteLength" : 1980,
            "byteOffset" : 10132
        },
        {
            "buffer" : 0,
            "byteLength" : 1980,
            "byteOffset" : 12112
        },
        {
            "buffer" : 0,
            "byteLength" : 1320,
            "byteOffset" : 14092
        },
        {
            "buffer" : 0,
            "byteLength" : 864,
            "byteOffset" : 15412
        },
        {
            "buffer" : 0,
            "byteLength" : 3444,
            "byteOffset" : 16276
        },
        {
            "buffer" : 0,
            "byteLength" : 3444,
            "byteOffset" : 19720
        },
        {
            "buffer" : 0,
            "byteLength" : 2296,
            "byteOffset" : 23164
        },
        {
            "buffer" : 0,
            "byteLength" : 1392,
            "byteOffset" : 25460
        }
    ],
    "samplers" : [
        {
            "magFilter" : 9729,
            "minFilter" : 9987
        }
    ],
    "buffers" : [
        {
            "byteLength" : 26852,
            "uri" : "Bush-05.bin"
        }
    ]
}
