{
    "asset" : {
        "generator" : "Khronos glTF Blender I/O v1.8.19",
        "version" : "2.0"
    },
    "scene" : 0,
    "scenes" : [
        {
            "name" : "Scene",
            "nodes" : [
                0
            ]
        }
    ],
    "nodes" : [
        {
            "mesh" : 0,
            "name" : "Flowers-02"
        }
    ],
    "materials" : [
        {
            "alphaCutoff" : 0.5,
            "alphaMode" : "MASK",
            "doubleSided" : true,
            "name" : "flowers-01",
            "pbrMetallicRoughness" : {
                "baseColorTexture" : {
                    "index" : 0
                },
                "metallicFactor" : 0
            }
        },
        {
            "alphaCutoff" : 0.5,
            "alphaMode" : "MASK",
            "doubleSided" : true,
            "name" : "flowers-02",
            "pbrMetallicRoughness" : {
                "baseColorTexture" : {
                    "index" : 1
                },
                "metallicFactor" : 0
            }
        },
        {
            "alphaCutoff" : 0.5,
            "alphaMode" : "MASK",
            "doubleSided" : true,
            "name" : "shrubbery-1-01",
            "pbrMetallicRoughness" : {
                "baseColorTexture" : {
                    "index" : 2
                },
                "metallicFactor" : 0
            }
        },
        {
            "alphaCutoff" : 0.5,
            "alphaMode" : "MASK",
            "doubleSided" : true,
            "name" : "shrubbery-1-02",
            "pbrMetallicRoughness" : {
                "baseColorTexture" : {
                    "index" : 3
                },
                "metallicFactor" : 0
            }
        }
    ],
    "meshes" : [
        {
            "name" : "Plane.205",
            "primitives" : [
                {
                    "attributes" : {
                        "POSITION" : 0,
                        "NORMAL" : 1,
                        "TEXCOORD_0" : 2
                    },
                    "indices" : 3,
                    "material" : 0
                },
                {
                    "attributes" : {
                        "POSITION" : 4,
                        "NORMAL" : 5,
                        "TEXCOORD_0" : 6
                    },
                    "indices" : 7,
                    "material" : 1
                },
                {
                    "attributes" : {
                        "POSITION" : 8,
                        "NORMAL" : 9,
                        "TEXCOORD_0" : 10
                    },
                    "indices" : 11,
                    "material" : 2
                },
                {
                    "attributes" : {
                        "POSITION" : 12,
                        "NORMAL" : 13,
                        "TEXCOORD_0" : 14
                    },
                    "indices" : 15,
                    "material" : 3
                }
            ]
        }
    ],
    "textures" : [
        {
            "sampler" : 0,
            "source" : 0
        },
        {
            "sampler" : 0,
            "source" : 1
        },
        {
            "sampler" : 0,
            "source" : 2
        },
        {
            "sampler" : 0,
            "source" : 3
        }
    ],
    "images" : [
        {
            "mimeType" : "image/png",
            "name" : "Image_0_fl01",
            "uri" : "Textures/Image_0_fl01.png"
        },
        {
            "mimeType" : "image/png",
            "name" : "Image_1_fl02",
            "uri" : "Textures/Image_1_fl02.png"
        },
        {
            "mimeType" : "image/png",
            "name" : "Image_2",
            "uri" : "Textures/Image_2.png"
        },
        {
            "mimeType" : "image/png",
            "name" : "Image_3",
            "uri" : "Textures/Image_3.png"
        }
    ],
    "accessors" : [
        {
            "bufferView" : 0,
            "componentType" : 5126,
            "count" : 36,
            "max" : [
                0.5709033012390137,
                0.6567959785461426,
                0.5399656295776367
            ],
            "min" : [
                -0.6250333786010742,
                0.3002931773662567,
                -0.6867103576660156
            ],
            "type" : "VEC3"
        },
        {
            "bufferView" : 1,
            "componentType" : 5126,
            "count" : 36,
            "type" : "VEC3"
        },
        {
            "bufferView" : 2,
            "componentType" : 5126,
            "count" : 36,
            "type" : "VEC2"
        },
        {
            "bufferView" : 3,
            "componentType" : 5123,
            "count" : 54,
            "type" : "SCALAR"
        },
        {
            "bufferView" : 4,
            "componentType" : 5126,
            "count" : 36,
            "max" : [
                0.6605124473571777,
                0.6368695497512817,
                0.5722646713256836
            ],
            "min" : [
                -0.41210460662841797,
                0.2703606188297272,
                -0.5660371780395508
            ],
            "type" : "VEC3"
        },
        {
            "bufferView" : 5,
            "componentType" : 5126,
            "count" : 36,
            "type" : "VEC3"
        },
        {
            "bufferView" : 6,
            "componentType" : 5126,
            "count" : 36,
            "type" : "VEC2"
        },
        {
            "bufferView" : 7,
            "componentType" : 5123,
            "count" : 54,
            "type" : "SCALAR"
        },
        {
            "bufferView" : 8,
            "componentType" : 5126,
            "count" : 72,
            "max" : [
                0.7436060905456543,
                0.7966265678405762,
                0.7275657653808594
            ],
            "min" : [
                -0.727839469909668,
                -0.10939362645149231,
                -0.681797981262207
            ],
            "type" : "VEC3"
        },
        {
            "bufferView" : 9,
            "componentType" : 5126,
            "count" : 72,
            "type" : "VEC3"
        },
        {
            "bufferView" : 10,
            "componentType" : 5126,
            "count" : 72,
            "type" : "VEC2"
        },
        {
            "bufferView" : 11,
            "componentType" : 5123,
            "count" : 108,
            "type" : "SCALAR"
        },
        {
            "bufferView" : 12,
            "componentType" : 5126,
            "count" : 36,
            "max" : [
                0.588994026184082,
                0.8451464772224426,
                0.6325216293334961
            ],
            "min" : [
                -0.7005586624145508,
                -0.10553368926048279,
                -0.6107664108276367
            ],
            "type" : "VEC3"
        },
        {
            "bufferView" : 13,
            "componentType" : 5126,
            "count" : 36,
            "type" : "VEC3"
        },
        {
            "bufferView" : 14,
            "componentType" : 5126,
            "count" : 36,
            "type" : "VEC2"
        },
        {
            "bufferView" : 15,
            "componentType" : 5123,
            "count" : 54,
            "type" : "SCALAR"
        }
    ],
    "bufferViews" : [
        {
            "buffer" : 0,
            "byteLength" : 432,
            "byteOffset" : 0
        },
        {
            "buffer" : 0,
            "byteLength" : 432,
            "byteOffset" : 432
        },
        {
            "buffer" : 0,
            "byteLength" : 288,
            "byteOffset" : 864
        },
        {
            "buffer" : 0,
            "byteLength" : 108,
            "byteOffset" : 1152
        },
        {
            "buffer" : 0,
            "byteLength" : 432,
            "byteOffset" : 1260
        },
        {
            "buffer" : 0,
            "byteLength" : 432,
            "byteOffset" : 1692
        },
        {
            "buffer" : 0,
            "byteLength" : 288,
            "byteOffset" : 2124
        },
        {
            "buffer" : 0,
            "byteLength" : 108,
            "byteOffset" : 2412
        },
        {
            "buffer" : 0,
            "byteLength" : 864,
            "byteOffset" : 2520
        },
        {
            "buffer" : 0,
            "byteLength" : 864,
            "byteOffset" : 3384
        },
        {
            "buffer" : 0,
            "byteLength" : 576,
            "byteOffset" : 4248
        },
        {
            "buffer" : 0,
            "byteLength" : 216,
            "byteOffset" : 4824
        },
        {
            "buffer" : 0,
            "byteLength" : 432,
            "byteOffset" : 5040
        },
        {
            "buffer" : 0,
            "byteLength" : 432,
            "byteOffset" : 5472
        },
        {
            "buffer" : 0,
            "byteLength" : 288,
            "byteOffset" : 5904
        },
        {
            "buffer" : 0,
            "byteLength" : 108,
            "byteOffset" : 6192
        }
    ],
    "samplers" : [
        {
            "magFilter" : 9729,
            "minFilter" : 9987
        }
    ],
    "buffers" : [
        {
            "byteLength" : 6300,
            "uri" : "Flowers-02.bin"
        }
    ]
}
