{
    "asset" : {
        "generator" : "Khronos glTF Blender I/O v1.8.19",
        "version" : "2.0"
    },
    "scene" : 0,
    "scenes" : [
        {
            "name" : "Scene",
            "nodes" : [
                0
            ]
        }
    ],
    "nodes" : [
        {
            "mesh" : 0,
            "name" : "Hedge-01"
        }
    ],
    "materials" : [
        {
            "alphaCutoff" : 0.5,
            "alphaMode" : "MASK",
            "doubleSided" : true,
            "name" : "hedge-01",
            "pbrMetallicRoughness" : {
                "baseColorTexture" : {
                    "index" : 0
                },
                "metallicFactor" : 0
            }
        },
        {
            "alphaCutoff" : 0.5,
            "alphaMode" : "MASK",
            "doubleSided" : true,
            "name" : "hedge-02",
            "pbrMetallicRoughness" : {
                "baseColorTexture" : {
                    "index" : 1
                },
                "metallicFactor" : 0,
                "roughnessFactor" : 0.5
            }
        }
    ],
    "meshes" : [
        {
            "name" : "Plane.733",
            "primitives" : [
                {
                    "attributes" : {
                        "POSITION" : 0,
                        "NORMAL" : 1,
                        "TEXCOORD_0" : 2
                    },
                    "indices" : 3,
                    "material" : 0
                },
                {
                    "attributes" : {
                        "POSITION" : 4,
                        "NORMAL" : 5,
                        "TEXCOORD_0" : 6
                    },
                    "indices" : 7,
                    "material" : 1
                }
            ]
        }
    ],
    "textures" : [
        {
            "sampler" : 0,
            "source" : 0
        },
        {
            "sampler" : 0,
            "source" : 1
        }
    ],
    "images" : [
        {
            "mimeType" : "image/png",
            "name" : "Image_0_h01",
            "uri" : "Textures/Image_0_h01.png"
        },
        {
            "mimeType" : "image/png",
            "name" : "Image_1_h01",
            "uri" : "Textures/Image_1_h01.png"
        }
    ],
    "accessors" : [
        {
            "bufferView" : 0,
            "componentType" : 5126,
            "count" : 322,
            "max" : [
                1.5267808437347412,
                1.3316688537597656,
                0.9170105457305908
            ],
            "min" : [
                -1.643824815750122,
                -0.02803802490234375,
                -0.9200267791748047
            ],
            "type" : "VEC3"
        },
        {
            "bufferView" : 1,
            "componentType" : 5126,
            "count" : 322,
            "type" : "VEC3"
        },
        {
            "bufferView" : 2,
            "componentType" : 5126,
            "count" : 322,
            "type" : "VEC2"
        },
        {
            "bufferView" : 3,
            "componentType" : 5123,
            "count" : 324,
            "type" : "SCALAR"
        },
        {
            "bufferView" : 4,
            "componentType" : 5126,
            "count" : 402,
            "max" : [
                1.1039197444915771,
                1.3722199201583862,
                0.7743308544158936
            ],
            "min" : [
                -1.3630845546722412,
                -0.03503978252410889,
                -0.7186248302459717
            ],
            "type" : "VEC3"
        },
        {
            "bufferView" : 5,
            "componentType" : 5126,
            "count" : 402,
            "type" : "VEC3"
        },
        {
            "bufferView" : 6,
            "componentType" : 5126,
            "count" : 402,
            "type" : "VEC2"
        },
        {
            "bufferView" : 7,
            "componentType" : 5123,
            "count" : 408,
            "type" : "SCALAR"
        }
    ],
    "bufferViews" : [
        {
            "buffer" : 0,
            "byteLength" : 3864,
            "byteOffset" : 0
        },
        {
            "buffer" : 0,
            "byteLength" : 3864,
            "byteOffset" : 3864
        },
        {
            "buffer" : 0,
            "byteLength" : 2576,
            "byteOffset" : 7728
        },
        {
            "buffer" : 0,
            "byteLength" : 648,
            "byteOffset" : 10304
        },
        {
            "buffer" : 0,
            "byteLength" : 4824,
            "byteOffset" : 10952
        },
        {
            "buffer" : 0,
            "byteLength" : 4824,
            "byteOffset" : 15776
        },
        {
            "buffer" : 0,
            "byteLength" : 3216,
            "byteOffset" : 20600
        },
        {
            "buffer" : 0,
            "byteLength" : 816,
            "byteOffset" : 23816
        }
    ],
    "samplers" : [
        {
            "magFilter" : 9729,
            "minFilter" : 9987
        }
    ],
    "buffers" : [
        {
            "byteLength" : 24632,
            "uri" : "Hedge-01.bin"
        }
    ]
}
