{
    "asset" : {
        "generator" : "Khronos glTF Blender I/O v1.8.19",
        "version" : "2.0"
    },
    "scene" : 0,
    "scenes" : [
        {
            "name" : "Scene",
            "nodes" : [
                0
            ]
        }
    ],
    "nodes" : [
        {
            "mesh" : 0,
            "name" : "Tree-02-3"
        }
    ],
    "materials" : [
        {
            "doubleSided" : true,
            "name" : "trunk-01",
            "pbrMetallicRoughness" : {
                "baseColorTexture" : {
                    "index" : 0
                },
                "metallicFactor" : 0
            }
        },
        {
            "alphaCutoff" : 0.5,
            "alphaMode" : "MASK",
            "doubleSided" : true,
            "name" : "branch-2-01",
            "pbrMetallicRoughness" : {
                "baseColorTexture" : {
                    "index" : 1
                },
                "metallicFactor" : 0,
                "roughnessFactor" : 0.5
            }
        },
        {
            "alphaCutoff" : 0.5,
            "alphaMode" : "MASK",
            "doubleSided" : true,
            "name" : "branch-2-02",
            "pbrMetallicRoughness" : {
                "baseColorTexture" : {
                    "index" : 2
                },
                "metallicFactor" : 0,
                "roughnessFactor" : 0.5
            }
        }
    ],
    "meshes" : [
        {
            "name" : "BezierCurve.025",
            "primitives" : [
                {
                    "attributes" : {
                        "POSITION" : 0,
                        "NORMAL" : 1,
                        "TEXCOORD_0" : 2
                    },
                    "indices" : 3,
                    "material" : 0
                },
                {
                    "attributes" : {
                        "POSITION" : 4,
                        "NORMAL" : 5,
                        "TEXCOORD_0" : 6
                    },
                    "indices" : 7,
                    "material" : 1
                },
                {
                    "attributes" : {
                        "POSITION" : 8,
                        "NORMAL" : 9,
                        "TEXCOORD_0" : 10
                    },
                    "indices" : 11,
                    "material" : 2
                }
            ]
        }
    ],
    "textures" : [
        {
            "sampler" : 0,
            "source" : 0
        },
        {
            "sampler" : 0,
            "source" : 1
        },
        {
            "sampler" : 0,
            "source" : 2
        }
    ],
    "images" : [
        {
            "mimeType" : "image/jpeg",
            "name" : "Image_0_t03",
            "uri" : "Textures/Image_0_t03.jpg"
        },
        {
            "mimeType" : "image/png",
            "name" : "Image_1_t02",
            "uri" : "Textures/Image_1_t02.png"
        },
        {
            "mimeType" : "image/png",
            "name" : "Image_2_t02",
            "uri" : "Textures/Image_2_t02.png"
        }
    ],
    "accessors" : [
        {
            "bufferView" : 0,
            "componentType" : 5126,
            "count" : 180,
            "max" : [
                0.33599090576171875,
                6.140496730804443,
                0.14856910705566406
            ],
            "min" : [
                -0.6547775268554688,
                -0.006242513656616211,
                -0.9040889739990234
            ],
            "type" : "VEC3"
        },
        {
            "bufferView" : 1,
            "componentType" : 5126,
            "count" : 180,
            "type" : "VEC3"
        },
        {
            "bufferView" : 2,
            "componentType" : 5126,
            "count" : 180,
            "type" : "VEC2"
        },
        {
            "bufferView" : 3,
            "componentType" : 5123,
            "count" : 396,
            "type" : "SCALAR"
        },
        {
            "bufferView" : 4,
            "componentType" : 5126,
            "count" : 151,
            "max" : [
                2.570941925048828,
                6.846273422241211,
                2.8657398223876953
            ],
            "min" : [
                -2.9678592681884766,
                1.1761441230773926,
                -1.9751033782958984
            ],
            "type" : "VEC3"
        },
        {
            "bufferView" : 5,
            "componentType" : 5126,
            "count" : 151,
            "type" : "VEC3"
        },
        {
            "bufferView" : 6,
            "componentType" : 5126,
            "count" : 151,
            "type" : "VEC2"
        },
        {
            "bufferView" : 7,
            "componentType" : 5123,
            "count" : 360,
            "type" : "SCALAR"
        },
        {
            "bufferView" : 8,
            "componentType" : 5126,
            "count" : 205,
            "max" : [
                2.6052093505859375,
                6.755727767944336,
                2.6551456451416016
            ],
            "min" : [
                -2.8625707626342773,
                0.4259324073791504,
                -2.402467727661133
            ],
            "type" : "VEC3"
        },
        {
            "bufferView" : 9,
            "componentType" : 5126,
            "count" : 205,
            "type" : "VEC3"
        },
        {
            "bufferView" : 10,
            "componentType" : 5126,
            "count" : 205,
            "type" : "VEC2"
        },
        {
            "bufferView" : 11,
            "componentType" : 5123,
            "count" : 480,
            "type" : "SCALAR"
        }
    ],
    "bufferViews" : [
        {
            "buffer" : 0,
            "byteLength" : 2160,
            "byteOffset" : 0
        },
        {
            "buffer" : 0,
            "byteLength" : 2160,
            "byteOffset" : 2160
        },
        {
            "buffer" : 0,
            "byteLength" : 1440,
            "byteOffset" : 4320
        },
        {
            "buffer" : 0,
            "byteLength" : 792,
            "byteOffset" : 5760
        },
        {
            "buffer" : 0,
            "byteLength" : 1812,
            "byteOffset" : 6552
        },
        {
            "buffer" : 0,
            "byteLength" : 1812,
            "byteOffset" : 8364
        },
        {
            "buffer" : 0,
            "byteLength" : 1208,
            "byteOffset" : 10176
        },
        {
            "buffer" : 0,
            "byteLength" : 720,
            "byteOffset" : 11384
        },
        {
            "buffer" : 0,
            "byteLength" : 2460,
            "byteOffset" : 12104
        },
        {
            "buffer" : 0,
            "byteLength" : 2460,
            "byteOffset" : 14564
        },
        {
            "buffer" : 0,
            "byteLength" : 1640,
            "byteOffset" : 17024
        },
        {
            "buffer" : 0,
            "byteLength" : 960,
            "byteOffset" : 18664
        }
    ],
    "samplers" : [
        {
            "magFilter" : 9729,
            "minFilter" : 9987
        }
    ],
    "buffers" : [
        {
            "byteLength" : 19624,
            "uri" : "Tree-02-3.bin"
        }
    ]
}
