{
    "asset" : {
        "generator" : "Khronos glTF Blender I/O v1.8.19",
        "version" : "2.0"
    },
    "scene" : 0,
    "scenes" : [
        {
            "name" : "Scene",
            "nodes" : [
                0
            ]
        }
    ],
    "nodes" : [
        {
            "mesh" : 0,
            "name" : "Tree-03-2"
        }
    ],
    "materials" : [
        {
            "doubleSided" : true,
            "name" : "trunk-01",
            "pbrMetallicRoughness" : {
                "baseColorTexture" : {
                    "index" : 0
                },
                "metallicFactor" : 0
            }
        },
        {
            "alphaCutoff" : 0.5,
            "alphaMode" : "MASK",
            "doubleSided" : true,
            "name" : "branch-01",
            "pbrMetallicRoughness" : {
                "baseColorTexture" : {
                    "index" : 1
                },
                "metallicFactor" : 0,
                "roughnessFactor" : 0.5
            }
        },
        {
            "alphaCutoff" : 0.5,
            "alphaMode" : "MASK",
            "doubleSided" : true,
            "name" : "branch-02",
            "pbrMetallicRoughness" : {
                "baseColorTexture" : {
                    "index" : 2
                },
                "metallicFactor" : 0,
                "roughnessFactor" : 0.5
            }
        }
    ],
    "meshes" : [
        {
            "name" : "BezierCurve.029",
            "primitives" : [
                {
                    "attributes" : {
                        "POSITION" : 0,
                        "NORMAL" : 1,
                        "TEXCOORD_0" : 2
                    },
                    "indices" : 3,
                    "material" : 0
                },
                {
                    "attributes" : {
                        "POSITION" : 4,
                        "NORMAL" : 5,
                        "TEXCOORD_0" : 6
                    },
                    "indices" : 7,
                    "material" : 1
                },
                {
                    "attributes" : {
                        "POSITION" : 8,
                        "NORMAL" : 9,
                        "TEXCOORD_0" : 10
                    },
                    "indices" : 11,
                    "material" : 2
                }
            ]
        }
    ],
    "textures" : [
        {
            "sampler" : 0,
            "source" : 0
        },
        {
            "sampler" : 0,
            "source" : 1
        },
        {
            "sampler" : 0,
            "source" : 2
        }
    ],
    "images" : [
        {
            "mimeType" : "image/jpeg",
            "name" : "Image_0_t03",
            "uri" : "Textures/Image_0_t03.jpg"
        },
        {
            "mimeType" : "image/png",
            "name" : "Image_1_t03",
            "uri" : "Textures/Image_1_t03.png"
        },
        {
            "mimeType" : "image/png",
            "name" : "Image_2_t03",
            "uri" : "Textures/Image_2_t03.png"
        }
    ],
    "accessors" : [
        {
            "bufferView" : 0,
            "componentType" : 5126,
            "count" : 296,
            "max" : [
                0.7186832427978516,
                7.666217803955078,
                0.5427608489990234
            ],
            "min" : [
                -1.3887996673583984,
                0,
                -0.9424686431884766
            ],
            "type" : "VEC3"
        },
        {
            "bufferView" : 1,
            "componentType" : 5126,
            "count" : 296,
            "type" : "VEC3"
        },
        {
            "bufferView" : 2,
            "componentType" : 5126,
            "count" : 296,
            "type" : "VEC2"
        },
        {
            "bufferView" : 3,
            "componentType" : 5123,
            "count" : 666,
            "type" : "SCALAR"
        },
        {
            "bufferView" : 4,
            "componentType" : 5126,
            "count" : 228,
            "max" : [
                3.07757568359375,
                8.684433937072754,
                3.181272506713867
            ],
            "min" : [
                -3.2689552307128906,
                1.5080325603485107,
                -3.0715322494506836
            ],
            "type" : "VEC3"
        },
        {
            "bufferView" : 5,
            "componentType" : 5126,
            "count" : 228,
            "type" : "VEC3"
        },
        {
            "bufferView" : 6,
            "componentType" : 5126,
            "count" : 228,
            "type" : "VEC2"
        },
        {
            "bufferView" : 7,
            "componentType" : 5123,
            "count" : 552,
            "type" : "SCALAR"
        },
        {
            "bufferView" : 8,
            "componentType" : 5126,
            "count" : 306,
            "max" : [
                3.3221282958984375,
                8.545442581176758,
                3.556309700012207
            ],
            "min" : [
                -3.012561798095703,
                1.1312527656555176,
                -3.0380520820617676
            ],
            "type" : "VEC3"
        },
        {
            "bufferView" : 9,
            "componentType" : 5126,
            "count" : 306,
            "type" : "VEC3"
        },
        {
            "bufferView" : 10,
            "componentType" : 5126,
            "count" : 306,
            "type" : "VEC2"
        },
        {
            "bufferView" : 11,
            "componentType" : 5123,
            "count" : 720,
            "type" : "SCALAR"
        }
    ],
    "bufferViews" : [
        {
            "buffer" : 0,
            "byteLength" : 3552,
            "byteOffset" : 0
        },
        {
            "buffer" : 0,
            "byteLength" : 3552,
            "byteOffset" : 3552
        },
        {
            "buffer" : 0,
            "byteLength" : 2368,
            "byteOffset" : 7104
        },
        {
            "buffer" : 0,
            "byteLength" : 1332,
            "byteOffset" : 9472
        },
        {
            "buffer" : 0,
            "byteLength" : 2736,
            "byteOffset" : 10804
        },
        {
            "buffer" : 0,
            "byteLength" : 2736,
            "byteOffset" : 13540
        },
        {
            "buffer" : 0,
            "byteLength" : 1824,
            "byteOffset" : 16276
        },
        {
            "buffer" : 0,
            "byteLength" : 1104,
            "byteOffset" : 18100
        },
        {
            "buffer" : 0,
            "byteLength" : 3672,
            "byteOffset" : 19204
        },
        {
            "buffer" : 0,
            "byteLength" : 3672,
            "byteOffset" : 22876
        },
        {
            "buffer" : 0,
            "byteLength" : 2448,
            "byteOffset" : 26548
        },
        {
            "buffer" : 0,
            "byteLength" : 1440,
            "byteOffset" : 28996
        }
    ],
    "samplers" : [
        {
            "magFilter" : 9729,
            "minFilter" : 9987
        }
    ],
    "buffers" : [
        {
            "byteLength" : 30436,
            "uri" : "Tree-03-2.bin"
        }
    ]
}
