{
    "asset" : {
        "generator" : "Khronos glTF Blender I/O v1.8.19",
        "version" : "2.0"
    },
    "scene" : 0,
    "scenes" : [
        {
            "name" : "Scene",
            "nodes" : [
                0
            ]
        }
    ],
    "nodes" : [
        {
            "mesh" : 0,
            "name" : "Tree-02-2"
        }
    ],
    "materials" : [
        {
            "doubleSided" : true,
            "name" : "trunk-01",
            "pbrMetallicRoughness" : {
                "baseColorTexture" : {
                    "index" : 0
                },
                "metallicFactor" : 0
            }
        },
        {
            "alphaCutoff" : 0.5,
            "alphaMode" : "MASK",
            "doubleSided" : true,
            "name" : "branch-2-01",
            "pbrMetallicRoughness" : {
                "baseColorTexture" : {
                    "index" : 1
                },
                "metallicFactor" : 0,
                "roughnessFactor" : 0.5
            }
        },
        {
            "alphaCutoff" : 0.5,
            "alphaMode" : "MASK",
            "doubleSided" : true,
            "name" : "branch-2-02",
            "pbrMetallicRoughness" : {
                "baseColorTexture" : {
                    "index" : 2
                },
                "metallicFactor" : 0,
                "roughnessFactor" : 0.5
            }
        }
    ],
    "meshes" : [
        {
            "name" : "BezierCurve.024",
            "primitives" : [
                {
                    "attributes" : {
                        "POSITION" : 0,
                        "NORMAL" : 1,
                        "TEXCOORD_0" : 2
                    },
                    "indices" : 3,
                    "material" : 0
                },
                {
                    "attributes" : {
                        "POSITION" : 4,
                        "NORMAL" : 5,
                        "TEXCOORD_0" : 6
                    },
                    "indices" : 7,
                    "material" : 1
                },
                {
                    "attributes" : {
                        "POSITION" : 8,
                        "NORMAL" : 9,
                        "TEXCOORD_0" : 10
                    },
                    "indices" : 11,
                    "material" : 2
                }
            ]
        }
    ],
    "textures" : [
        {
            "sampler" : 0,
            "source" : 0
        },
        {
            "sampler" : 0,
            "source" : 1
        },
        {
            "sampler" : 0,
            "source" : 2
        }
    ],
    "images" : [
        {
            "mimeType" : "image/jpeg",
            "name" : "Image_0_t03",
            "uri" : "Textures/Image_0_t03.jpg"
        },
        {
            "mimeType" : "image/png",
            "name" : "Image_1_t02",
            "uri" : "Textures/Image_1_t02.png"
        },
        {
            "mimeType" : "image/png",
            "name" : "Image_2_t02",
            "uri" : "Textures/Image_2_t02.png"
        }
    ],
    "accessors" : [
        {
            "bufferView" : 0,
            "componentType" : 5126,
            "count" : 296,
            "max" : [
                1.2804012298583984,
                6.986281871795654,
                0.8786478042602539
            ],
            "min" : [
                -0.6633539199829102,
                0,
                -0.2158660888671875
            ],
            "type" : "VEC3"
        },
        {
            "bufferView" : 1,
            "componentType" : 5126,
            "count" : 296,
            "type" : "VEC3"
        },
        {
            "bufferView" : 2,
            "componentType" : 5126,
            "count" : 296,
            "type" : "VEC2"
        },
        {
            "bufferView" : 3,
            "componentType" : 5123,
            "count" : 666,
            "type" : "SCALAR"
        },
        {
            "bufferView" : 4,
            "componentType" : 5126,
            "count" : 226,
            "max" : [
                3.1522254943847656,
                7.98792028427124,
                3.5089340209960938
            ],
            "min" : [
                -2.511251449584961,
                1.1536965370178223,
                -2.720447540283203
            ],
            "type" : "VEC3"
        },
        {
            "bufferView" : 5,
            "componentType" : 5126,
            "count" : 226,
            "type" : "VEC3"
        },
        {
            "bufferView" : 6,
            "componentType" : 5126,
            "count" : 226,
            "type" : "VEC2"
        },
        {
            "bufferView" : 7,
            "componentType" : 5123,
            "count" : 552,
            "type" : "SCALAR"
        },
        {
            "bufferView" : 8,
            "componentType" : 5126,
            "count" : 302,
            "max" : [
                2.553802490234375,
                7.851191997528076,
                3.37496280670166
            ],
            "min" : [
                -2.589742660522461,
                0.5577106475830078,
                -3.100368022918701
            ],
            "type" : "VEC3"
        },
        {
            "bufferView" : 9,
            "componentType" : 5126,
            "count" : 302,
            "type" : "VEC3"
        },
        {
            "bufferView" : 10,
            "componentType" : 5126,
            "count" : 302,
            "type" : "VEC2"
        },
        {
            "bufferView" : 11,
            "componentType" : 5123,
            "count" : 720,
            "type" : "SCALAR"
        }
    ],
    "bufferViews" : [
        {
            "buffer" : 0,
            "byteLength" : 3552,
            "byteOffset" : 0
        },
        {
            "buffer" : 0,
            "byteLength" : 3552,
            "byteOffset" : 3552
        },
        {
            "buffer" : 0,
            "byteLength" : 2368,
            "byteOffset" : 7104
        },
        {
            "buffer" : 0,
            "byteLength" : 1332,
            "byteOffset" : 9472
        },
        {
            "buffer" : 0,
            "byteLength" : 2712,
            "byteOffset" : 10804
        },
        {
            "buffer" : 0,
            "byteLength" : 2712,
            "byteOffset" : 13516
        },
        {
            "buffer" : 0,
            "byteLength" : 1808,
            "byteOffset" : 16228
        },
        {
            "buffer" : 0,
            "byteLength" : 1104,
            "byteOffset" : 18036
        },
        {
            "buffer" : 0,
            "byteLength" : 3624,
            "byteOffset" : 19140
        },
        {
            "buffer" : 0,
            "byteLength" : 3624,
            "byteOffset" : 22764
        },
        {
            "buffer" : 0,
            "byteLength" : 2416,
            "byteOffset" : 26388
        },
        {
            "buffer" : 0,
            "byteLength" : 1440,
            "byteOffset" : 28804
        }
    ],
    "samplers" : [
        {
            "magFilter" : 9729,
            "minFilter" : 9987
        }
    ],
    "buffers" : [
        {
            "byteLength" : 30244,
            "uri" : "Tree-02-2.bin"
        }
    ]
}
