{
    "asset" : {
        "generator" : "Khronos glTF Blender I/O v1.7.33",
        "version" : "2.0"
    },
    "scene" : 0,
    "scenes" : [
        {
            "name" : "Scene",
            "nodes" : [
                0
            ]
        }
    ],
    "nodes" : [
        {
            "mesh" : 0,
            "name" : "Balcony",
            "scale" : [
                1.455808401107788,
                1.455808401107788,
                1.455808401107788
            ],
            "translation" : [
                -0.10026794672012329,
                0.40034249424934387,
                0
            ]
        }
    ],
    "materials" : [
        {
            "name" : "Floor.001",
            "normalTexture" : {
                "index" : 0
            },
            "pbrMetallicRoughness" : {
                "baseColorTexture" : {
                    "index" : 1
                },
                "metallicFactor" : 0,
                "roughnessFactor" : 0.5
            }
        },
        {
            "doubleSided" : true,
            "name" : "Zinc.001",
            "pbrMetallicRoughness" : {
                "baseColorFactor" : [
                    0.07678046822547913,
                    0.11675279587507248,
                    0.15232540667057037,
                    1
                ],
                "metallicFactor" : 0,
                "roughnessFactor" : 0.13415545225143433
            }
        }
    ],
    "meshes" : [
        {
            "name" : "Cube.001",
            "primitives" : [
                {
                    "attributes" : {
                        "POSITION" : 0,
                        "NORMAL" : 1,
                        "TEXCOORD_0" : 2
                    },
                    "indices" : 3,
                    "material" : 0
                },
                {
                    "attributes" : {
                        "POSITION" : 4,
                        "NORMAL" : 5,
                        "TEXCOORD_0" : 6
                    },
                    "indices" : 7,
                    "material" : 1
                }
            ]
        }
    ],
    "textures" : [
        {
            "sampler" : 0,
            "source" : 0
        },
        {
            "sampler" : 0,
            "source" : 1
        }
    ],
    "images" : [
        {
            "mimeType" : "image/jpeg",
            "name" : "FloorNormal_2048_CC0",
            "uri" : "Textures/FloorNormal_2048_CC0.jpg"
        },
        {
            "mimeType" : "image/jpeg",
            "name" : "FloorColor_2048_CC0",
            "uri" : "Textures/FloorColor_2048_CC0.jpg"
        }
    ],
    "accessors" : [
        {
            "bufferView" : 0,
            "componentType" : 5126,
            "count" : 220,
            "max" : [
                1.431931972503662,
                -0.09514075517654419,
                0.28315603733062744
            ],
            "min" : [
                -1.292811632156372,
                -0.27631229162216187,
                -0.4287338852882385
            ],
            "type" : "VEC3"
        },
        {
            "bufferView" : 1,
            "componentType" : 5126,
            "count" : 220,
            "type" : "VEC3"
        },
        {
            "bufferView" : 2,
            "componentType" : 5126,
            "count" : 220,
            "type" : "VEC2"
        },
        {
            "bufferView" : 3,
            "componentType" : 5123,
            "count" : 384,
            "type" : "SCALAR"
        },
        {
            "bufferView" : 4,
            "componentType" : 5126,
            "count" : 26484,
            "max" : [
                1.4287430047988892,
                0.5977646708488464,
                0.2859249711036682
            ],
            "min" : [
                -1.291353702545166,
                -0.11030519008636475,
                -0.43017059564590454
            ],
            "type" : "VEC3"
        },
        {
            "bufferView" : 5,
            "componentType" : 5126,
            "count" : 26484,
            "type" : "VEC3"
        },
        {
            "bufferView" : 6,
            "componentType" : 5126,
            "count" : 26484,
            "type" : "VEC2"
        },
        {
            "bufferView" : 7,
            "componentType" : 5123,
            "count" : 39996,
            "type" : "SCALAR"
        }
    ],
    "bufferViews" : [
        {
            "buffer" : 0,
            "byteLength" : 2640,
            "byteOffset" : 0
        },
        {
            "buffer" : 0,
            "byteLength" : 2640,
            "byteOffset" : 2640
        },
        {
            "buffer" : 0,
            "byteLength" : 1760,
            "byteOffset" : 5280
        },
        {
            "buffer" : 0,
            "byteLength" : 768,
            "byteOffset" : 7040
        },
        {
            "buffer" : 0,
            "byteLength" : 317808,
            "byteOffset" : 7808
        },
        {
            "buffer" : 0,
            "byteLength" : 317808,
            "byteOffset" : 325616
        },
        {
            "buffer" : 0,
            "byteLength" : 211872,
            "byteOffset" : 643424
        },
        {
            "buffer" : 0,
            "byteLength" : 79992,
            "byteOffset" : 855296
        }
    ],
    "samplers" : [
        {
            "magFilter" : 9729,
            "minFilter" : 9987
        }
    ],
    "buffers" : [
        {
            "byteLength" : 935288,
            "uri" : "Balcony.bin"
        }
    ]
}
