{
    "asset" : {
        "generator" : "Khronos glTF Blender I/O v1.7.33",
        "version" : "2.0"
    },
    "scene" : 0,
    "scenes" : [
        {
            "name" : "Scene",
            "nodes" : [
                0
            ]
        }
    ],
    "nodes" : [
        {
            "mesh" : 0,
            "name" : "Cube.001"
        }
    ],
    "materials" : [
        {
            "name" : "Wall",
            "normalTexture" : {
                "index" : 0
            },
            "pbrMetallicRoughness" : {
                "baseColorTexture" : {
                    "index" : 1
                },
                "metallicFactor" : 0,
                "roughnessFactor" : 0.5
            }
        },
        {
            "name" : "Floor",
            "normalTexture" : {
                "index" : 2
            },
            "pbrMetallicRoughness" : {
                "baseColorTexture" : {
                    "index" : 3
                },
                "metallicFactor" : 0,
                "metallicRoughnessTexture" : {
                    "index" : 4
                }
            }
        }
    ],
    "meshes" : [
        {
            "name" : "Cube.001",
            "primitives" : [
                {
                    "attributes" : {
                        "POSITION" : 0,
                        "NORMAL" : 1,
                        "TEXCOORD_0" : 2
                    },
                    "indices" : 3,
                    "material" : 0
                },
                {
                    "attributes" : {
                        "POSITION" : 4,
                        "NORMAL" : 5,
                        "TEXCOORD_0" : 6
                    },
                    "indices" : 7,
                    "material" : 1
                }
            ]
        }
    ],
    "textures" : [
        {
            "sampler" : 0,
            "source" : 0
        },
        {
            "sampler" : 0,
            "source" : 1
        },
        {
            "sampler" : 0,
            "source" : 2
        },
        {
            "sampler" : 0,
            "source" : 3
        },
        {
            "sampler" : 0,
            "source" : 4
        }
    ],
    "images" : [
        {
            "mimeType" : "image/jpeg",
            "name" : "WallNormal_2048_CC0",
            "uri" : "Textures/WallNormal_2048_CC0.jpg"
        },
        {
            "mimeType" : "image/jpeg",
            "name" : "WallColor_2048_CC0",
            "uri" : "Textures/WallColor_2048_CC0.jpg"
        },
        {
            "mimeType" : "image/jpeg",
            "name" : "FloorNormal_2048_CC0",
            "uri" : "Textures/FloorNormal_2048_CC0.jpg"
        },
        {
            "mimeType" : "image/jpeg",
            "name" : "FloorColor_2048_CC0",
            "uri" : "Textures/FloorColor_2048_CC0.jpg"
        },
        {
            "mimeType" : "image/png",
            "name" : "FloorRoughness_1024_CC0",
            "uri" : "Textures/FloorRoughness_1024_CC0.png"
        }
    ],
    "accessors" : [
        {
            "bufferView" : 0,
            "componentType" : 5126,
            "count" : 938,
            "max" : [
                5.3619160652160645,
                4.437507629394531,
                6.878260612487793
            ],
            "min" : [
                -5.410722255706787,
                -0.05896639823913574,
                -6.820972919464111
            ],
            "type" : "VEC3"
        },
        {
            "bufferView" : 1,
            "componentType" : 5126,
            "count" : 938,
            "type" : "VEC3"
        },
        {
            "bufferView" : 2,
            "componentType" : 5126,
            "count" : 938,
            "type" : "VEC2"
        },
        {
            "bufferView" : 3,
            "componentType" : 5123,
            "count" : 1692,
            "type" : "SCALAR"
        },
        {
            "bufferView" : 4,
            "componentType" : 5126,
            "count" : 48,
            "max" : [
                5.259108543395996,
                4.307765007019043,
                6.747328281402588
            ],
            "min" : [
                -5.252880573272705,
                0.016466379165649414,
                -6.467713356018066
            ],
            "type" : "VEC3"
        },
        {
            "bufferView" : 5,
            "componentType" : 5126,
            "count" : 48,
            "type" : "VEC3"
        },
        {
            "bufferView" : 6,
            "componentType" : 5126,
            "count" : 48,
            "type" : "VEC2"
        },
        {
            "bufferView" : 7,
            "componentType" : 5123,
            "count" : 120,
            "type" : "SCALAR"
        }
    ],
    "bufferViews" : [
        {
            "buffer" : 0,
            "byteLength" : 11256,
            "byteOffset" : 0
        },
        {
            "buffer" : 0,
            "byteLength" : 11256,
            "byteOffset" : 11256
        },
        {
            "buffer" : 0,
            "byteLength" : 7504,
            "byteOffset" : 22512
        },
        {
            "buffer" : 0,
            "byteLength" : 3384,
            "byteOffset" : 30016
        },
        {
            "buffer" : 0,
            "byteLength" : 576,
            "byteOffset" : 33400
        },
        {
            "buffer" : 0,
            "byteLength" : 576,
            "byteOffset" : 33976
        },
        {
            "buffer" : 0,
            "byteLength" : 384,
            "byteOffset" : 34552
        },
        {
            "buffer" : 0,
            "byteLength" : 240,
            "byteOffset" : 34936
        }
    ],
    "samplers" : [
        {
            "magFilter" : 9729,
            "minFilter" : 9987
        }
    ],
    "buffers" : [
        {
            "byteLength" : 35176,
            "uri" : "Building_1.bin"
        }
    ]
}
