{
    "asset" : {
        "generator" : "Khronos glTF Blender I/O v1.8.19",
        "version" : "2.0"
    },
    "scene" : 0,
    "scenes" : [
        {
            "name" : "Scene",
            "nodes" : [
                0
            ]
        }
    ],
    "nodes" : [
        {
            "mesh" : 0,
            "name" : "doors",
            "translation" : [
                0,
                0,
                0
            ]
        }
    ],
    "materials" : [
        {
            "name" : "wood_floor",
            "normalTexture" : {
                "index" : 0
            },
            "pbrMetallicRoughness" : {
                "baseColorTexture" : {
                    "index" : 1
                },
                "metallicRoughnessTexture" : {
                    "index" : 2
                }
            }
        },
        {
            "doubleSided" : true,
            "name" : "bronze",
            "pbrMetallicRoughness" : {
                "baseColorFactor" : [
                    0.26675233244895935,
                    0.18979014456272125,
                    0.059872448444366455,
                    1
                ],
                "roughnessFactor" : 0.10164836049079895
            }
        }
    ],
    "meshes" : [
        {
            "name" : "Plane.001",
            "primitives" : [
                {
                    "attributes" : {
                        "POSITION" : 0,
                        "NORMAL" : 1,
                        "TEXCOORD_0" : 2
                    },
                    "indices" : 3,
                    "material" : 0
                },
                {
                    "attributes" : {
                        "POSITION" : 4,
                        "NORMAL" : 5,
                        "TEXCOORD_0" : 6
                    },
                    "indices" : 7,
                    "material" : 1
                }
            ]
        }
    ],
    "textures" : [
        {
            "sampler" : 0,
            "source" : 0
        },
        {
            "sampler" : 0,
            "source" : 1
        },
        {
            "sampler" : 0,
            "source" : 2
        }
    ],
    "images" : [
        {
            "mimeType" : "image/jpeg",
            "name" : "wood_floor_normal_CC0.jpg",
            "uri" : "Textures/wood_floor_normal_CC0.jpg"
        },
        {
            "mimeType" : "image/jpeg",
            "name" : "wood_floor_color_CC0.jpg",
            "uri" : "Textures/wood_floor_color_CC0.jpg"
        },
        {
            "mimeType" : "image/jpeg",
            "name" : "wood_floor_roughness_CC0.jpg",
            "uri" : "Textures/wood_floor_roughness_CC0.jpg"
        }
    ],
    "accessors" : [
        {
            "bufferView" : 0,
            "componentType" : 5126,
            "count" : 452,
            "max" : [
                0,
                1.959999918937683,
                0
            ],
            "min" : [
                -0.039999961853027344,
                0,
                -0.7600002288818359
            ],
            "type" : "VEC3"
        },
        {
            "bufferView" : 1,
            "componentType" : 5126,
            "count" : 452,
            "type" : "VEC3"
        },
        {
            "bufferView" : 2,
            "componentType" : 5126,
            "count" : 452,
            "type" : "VEC2"
        },
        {
            "bufferView" : 3,
            "componentType" : 5123,
            "count" : 708,
            "type" : "SCALAR"
        },
        {
            "bufferView" : 4,
            "componentType" : 5126,
            "count" : 56,
            "max" : [
                0.05000019073486328,
                0.9799998998641968,
                -0.6200002431869507
            ],
            "min" : [
                -0.09000244736671448,
                0.9399999380111694,
                -0.7500002384185791
            ],
            "type" : "VEC3"
        },
        {
            "bufferView" : 5,
            "componentType" : 5126,
            "count" : 56,
            "type" : "VEC3"
        },
        {
            "bufferView" : 6,
            "componentType" : 5126,
            "count" : 56,
            "type" : "VEC2"
        },
        {
            "bufferView" : 7,
            "componentType" : 5123,
            "count" : 300,
            "type" : "SCALAR"
        }
    ],
    "bufferViews" : [
        {
            "buffer" : 0,
            "byteLength" : 5424,
            "byteOffset" : 0
        },
        {
            "buffer" : 0,
            "byteLength" : 5424,
            "byteOffset" : 5424
        },
        {
            "buffer" : 0,
            "byteLength" : 3616,
            "byteOffset" : 10848
        },
        {
            "buffer" : 0,
            "byteLength" : 1416,
            "byteOffset" : 14464
        },
        {
            "buffer" : 0,
            "byteLength" : 672,
            "byteOffset" : 15880
        },
        {
            "buffer" : 0,
            "byteLength" : 672,
            "byteOffset" : 16552
        },
        {
            "buffer" : 0,
            "byteLength" : 448,
            "byteOffset" : 17224
        },
        {
            "buffer" : 0,
            "byteLength" : 600,
            "byteOffset" : 17672
        }
    ],
    "samplers" : [
        {
            "magFilter" : 9729,
            "minFilter" : 9987
        }
    ],
    "buffers" : [
        {
            "byteLength" : 18272,
            "uri" : "doors.bin"
        }
    ]
}
