{
    "asset" : {
        "generator" : "Khronos glTF Blender I/O v1.7.33",
        "version" : "2.0"
    },
    "scene" : 0,
    "scenes" : [
        {
            "name" : "Scene",
            "nodes" : [
                0
            ]
        }
    ],
    "nodes" : [
        {
            "mesh" : 0,
            "name" : "Cube.023",
            "translation" : [
                0,
                6.029784202575684,
                0
            ]
        }
    ],
    "materials" : [
        {
            "name" : "Roof",
            "normalTexture" : {
                "index" : 0
            },
            "pbrMetallicRoughness" : {
                "baseColorTexture" : {
                    "index" : 1
                },
                "metallicFactor" : 0,
                "roughnessFactor" : 0.5
            }
        },
        {
            "name" : "Wall",
            "normalTexture" : {
                "index" : 2
            },
            "pbrMetallicRoughness" : {
                "baseColorTexture" : {
                    "index" : 3
                },
                "metallicFactor" : 0,
                "roughnessFactor" : 0.5
            }
        },
        {
            "alphaMode" : "BLEND",
            "doubleSided" : true,
            "name" : "Glass",
            "pbrMetallicRoughness" : {
                "baseColorFactor" : [
                    0.498820960521698,
                    0.5934804081916809,
                    0.8000000715255737,
                    0.13679246604442596
                ],
                "roughnessFactor" : 0.15094339847564697
            }
        },
        {
            "name" : "Zinc",
            "pbrMetallicRoughness" : {
                "baseColorFactor" : [
                    0.07678046822547913,
                    0.11675279587507248,
                    0.15232540667057037,
                    1
                ],
                "metallicFactor" : 0,
                "roughnessFactor" : 0.8113207817077637
            }
        }
    ],
    "meshes" : [
        {
            "name" : "Cube.010",
            "primitives" : [
                {
                    "attributes" : {
                        "POSITION" : 0,
                        "NORMAL" : 1,
                        "TEXCOORD_0" : 2
                    },
                    "indices" : 3,
                    "material" : 0
                },
                {
                    "attributes" : {
                        "POSITION" : 4,
                        "NORMAL" : 5,
                        "TEXCOORD_0" : 6
                    },
                    "indices" : 7,
                    "material" : 1
                },
                {
                    "attributes" : {
                        "POSITION" : 8,
                        "NORMAL" : 9,
                        "TEXCOORD_0" : 10
                    },
                    "indices" : 11,
                    "material" : 2
                },
                {
                    "attributes" : {
                        "POSITION" : 12,
                        "NORMAL" : 13,
                        "TEXCOORD_0" : 14
                    },
                    "indices" : 15,
                    "material" : 3
                }
            ]
        }
    ],
    "textures" : [
        {
            "sampler" : 0,
            "source" : 0
        },
        {
            "sampler" : 0,
            "source" : 1
        },
        {
            "sampler" : 0,
            "source" : 2
        },
        {
            "sampler" : 0,
            "source" : 3
        }
    ],
    "images" : [
        {
            "mimeType" : "image/png",
            "name" : "1K-rooftile_6_normal",
            "uri" : "Textures/1K-rooftile_6_normal.png"
        },
        {
            "mimeType" : "image/png",
            "name" : "1K-rooftile_6_basecolor",
            "uri" : "Textures/1K-rooftile_6_basecolor.png"
        },
        {
            "mimeType" : "image/jpeg",
            "name" : "WallNormal_2048_CC0",
            "uri" : "Textures/WallNormal_2048_CC0.jpg"
        },
        {
            "mimeType" : "image/jpeg",
            "name" : "WallColor_2048_CC0",
            "uri" : "Textures/WallColor_2048_CC0.jpg"
        }
    ],
    "accessors" : [
        {
            "bufferView" : 0,
            "componentType" : 5126,
            "count" : 83,
            "max" : [
                1.9739646911621094,
                4.329793453216553,
                2.4786088466644287
            ],
            "min" : [
                -2.083178997039795,
                0.7860465049743652,
                -5.694986820220947
            ],
            "type" : "VEC3"
        },
        {
            "bufferView" : 1,
            "componentType" : 5126,
            "count" : 83,
            "type" : "VEC3"
        },
        {
            "bufferView" : 2,
            "componentType" : 5126,
            "count" : 83,
            "type" : "VEC2"
        },
        {
            "bufferView" : 3,
            "componentType" : 5123,
            "count" : 195,
            "type" : "SCALAR"
        },
        {
            "bufferView" : 4,
            "componentType" : 5126,
            "count" : 582,
            "max" : [
                1.9739651679992676,
                1.1095423698425293,
                2.502140998840332
            ],
            "min" : [
                -2.083178997039795,
                -6.037328243255615,
                1.4099361896514893
            ],
            "type" : "VEC3"
        },
        {
            "bufferView" : 5,
            "componentType" : 5126,
            "count" : 582,
            "type" : "VEC3"
        },
        {
            "bufferView" : 6,
            "componentType" : 5126,
            "count" : 582,
            "type" : "VEC2"
        },
        {
            "bufferView" : 7,
            "componentType" : 5123,
            "count" : 1830,
            "type" : "SCALAR"
        },
        {
            "bufferView" : 8,
            "componentType" : 5126,
            "count" : 576,
            "max" : [
                1.9312958717346191,
                -0.7977142333984375,
                1.5688021183013916
            ],
            "min" : [
                -2.0405097007751465,
                -3.6023313999176025,
                1.5518693923950195
            ],
            "type" : "VEC3"
        },
        {
            "bufferView" : 9,
            "componentType" : 5126,
            "count" : 576,
            "type" : "VEC3"
        },
        {
            "bufferView" : 10,
            "componentType" : 5126,
            "count" : 576,
            "type" : "VEC2"
        },
        {
            "bufferView" : 11,
            "componentType" : 5123,
            "count" : 864,
            "type" : "SCALAR"
        },
        {
            "bufferView" : 12,
            "componentType" : 5126,
            "count" : 1059,
            "max" : [
                1.9693388938903809,
                -0.751615047454834,
                1.5816404819488525
            ],
            "min" : [
                -2.0924296379089355,
                -3.664146661758423,
                1.5387903451919556
            ],
            "type" : "VEC3"
        },
        {
            "bufferView" : 13,
            "componentType" : 5126,
            "count" : 1059,
            "type" : "VEC3"
        },
        {
            "bufferView" : 14,
            "componentType" : 5126,
            "count" : 1059,
            "type" : "VEC2"
        },
        {
            "bufferView" : 15,
            "componentType" : 5123,
            "count" : 1860,
            "type" : "SCALAR"
        }
    ],
    "bufferViews" : [
        {
            "buffer" : 0,
            "byteLength" : 996,
            "byteOffset" : 0
        },
        {
            "buffer" : 0,
            "byteLength" : 996,
            "byteOffset" : 996
        },
        {
            "buffer" : 0,
            "byteLength" : 664,
            "byteOffset" : 1992
        },
        {
            "buffer" : 0,
            "byteLength" : 390,
            "byteOffset" : 2656
        },
        {
            "buffer" : 0,
            "byteLength" : 6984,
            "byteOffset" : 3048
        },
        {
            "buffer" : 0,
            "byteLength" : 6984,
            "byteOffset" : 10032
        },
        {
            "buffer" : 0,
            "byteLength" : 4656,
            "byteOffset" : 17016
        },
        {
            "buffer" : 0,
            "byteLength" : 3660,
            "byteOffset" : 21672
        },
        {
            "buffer" : 0,
            "byteLength" : 6912,
            "byteOffset" : 25332
        },
        {
            "buffer" : 0,
            "byteLength" : 6912,
            "byteOffset" : 32244
        },
        {
            "buffer" : 0,
            "byteLength" : 4608,
            "byteOffset" : 39156
        },
        {
            "buffer" : 0,
            "byteLength" : 1728,
            "byteOffset" : 43764
        },
        {
            "buffer" : 0,
            "byteLength" : 12708,
            "byteOffset" : 45492
        },
        {
            "buffer" : 0,
            "byteLength" : 12708,
            "byteOffset" : 58200
        },
        {
            "buffer" : 0,
            "byteLength" : 8472,
            "byteOffset" : 70908
        },
        {
            "buffer" : 0,
            "byteLength" : 3720,
            "byteOffset" : 79380
        }
    ],
    "samplers" : [
        {
            "magFilter" : 9729,
            "minFilter" : 9987
        }
    ],
    "buffers" : [
        {
            "byteLength" : 83100,
            "uri" : "Gallery.bin"
        }
    ]
}
