{
    "asset" : {
        "generator" : "Khronos glTF Blender I/O v1.7.33",
        "version" : "2.0"
    },
    "scene" : 0,
    "scenes" : [
        {
            "name" : "Scene",
            "nodes" : [
                0
            ]
        }
    ],
    "nodes" : [
        {
            "mesh" : 0,
            "name" : "Cube.023",
            "rotation" : [
                0,
                0.7071068286895752,
                0,
                0.7071068286895752
            ],
            "translation" : [
                0,
                4.675843715667725,
                -0.47607165575027466
            ]
        }
    ],
    "materials" : [
        {
            "name" : "Roof",
            "normalTexture" : {
                "index" : 0
            },
            "pbrMetallicRoughness" : {
                "baseColorTexture" : {
                    "index" : 1
                },
                "metallicFactor" : 0,
                "roughnessFactor" : 0.5
            }
        },
        {
            "name" : "Wall",
            "normalTexture" : {
                "index" : 2
            },
            "pbrMetallicRoughness" : {
                "baseColorTexture" : {
                    "index" : 3
                },
                "metallicFactor" : 0,
                "roughnessFactor" : 0.5
            }
        },
        {
            "alphaMode" : "BLEND",
            "doubleSided" : true,
            "name" : "Glass",
            "pbrMetallicRoughness" : {
                "baseColorFactor" : [
                    0.498820960521698,
                    0.5934804081916809,
                    0.8000000715255737,
                    0.13679246604442596
                ],
                "roughnessFactor" : 0.15094339847564697
            }
        },
        {
            "name" : "Zinc",
            "pbrMetallicRoughness" : {
                "baseColorFactor" : [
                    0.07678046822547913,
                    0.11675279587507248,
                    0.15232540667057037,
                    1
                ],
                "metallicFactor" : 0,
                "roughnessFactor" : 0.8113207817077637
            }
        }
    ],
    "meshes" : [
        {
            "name" : "Cube.010",
            "primitives" : [
                {
                    "attributes" : {
                        "POSITION" : 0,
                        "NORMAL" : 1,
                        "TEXCOORD_0" : 2
                    },
                    "indices" : 3,
                    "material" : 0
                },
                {
                    "attributes" : {
                        "POSITION" : 4,
                        "NORMAL" : 5,
                        "TEXCOORD_0" : 6
                    },
                    "indices" : 7,
                    "material" : 1
                },
                {
                    "attributes" : {
                        "POSITION" : 8,
                        "NORMAL" : 9,
                        "TEXCOORD_0" : 10
                    },
                    "indices" : 11,
                    "material" : 2
                },
                {
                    "attributes" : {
                        "POSITION" : 12,
                        "NORMAL" : 13,
                        "TEXCOORD_0" : 14
                    },
                    "indices" : 15,
                    "material" : 3
                }
            ]
        }
    ],
    "textures" : [
        {
            "sampler" : 0,
            "source" : 0
        },
        {
            "sampler" : 0,
            "source" : 1
        },
        {
            "sampler" : 0,
            "source" : 2
        },
        {
            "sampler" : 0,
            "source" : 3
        }
    ],
    "images" : [
        {
            "mimeType" : "image/png",
            "name" : "1K-rooftile_6_normal",
            "uri" : "Textures/1K-rooftile_6_normal.png"
        },
        {
            "mimeType" : "image/png",
            "name" : "1K-rooftile_6_basecolor",
            "uri" : "Textures/1K-rooftile_6_basecolor.png"
        },
        {
            "mimeType" : "image/jpeg",
            "name" : "WallNormal_2048_CC0",
            "uri" : "Textures/WallNormal_2048_CC0.jpg"
        },
        {
            "mimeType" : "image/jpeg",
            "name" : "WallColor_2048_CC0",
            "uri" : "Textures/WallColor_2048_CC0.jpg"
        }
    ],
    "accessors" : [
        {
            "bufferView" : 0,
            "componentType" : 5126,
            "count" : 410,
            "max" : [
                7.181824207305908,
                5.691117763519287,
                10.086383819580078
            ],
            "min" : [
                -0.991771399974823,
                2.1473710536956787,
                -10.073684692382812
            ],
            "type" : "VEC3"
        },
        {
            "bufferView" : 1,
            "componentType" : 5126,
            "count" : 410,
            "type" : "VEC3"
        },
        {
            "bufferView" : 2,
            "componentType" : 5126,
            "count" : 410,
            "type" : "VEC2"
        },
        {
            "bufferView" : 3,
            "componentType" : 5123,
            "count" : 810,
            "type" : "SCALAR"
        },
        {
            "bufferView" : 4,
            "componentType" : 5126,
            "count" : 3293,
            "max" : [
                0.07690127938985825,
                2.4708664417266846,
                10.086383819580078
            ],
            "min" : [
                -1.0153037309646606,
                -4.676003932952881,
                -10.073684692382812
            ],
            "type" : "VEC3"
        },
        {
            "bufferView" : 5,
            "componentType" : 5126,
            "count" : 3293,
            "type" : "VEC3"
        },
        {
            "bufferView" : 6,
            "componentType" : 5126,
            "count" : 3293,
            "type" : "VEC2"
        },
        {
            "bufferView" : 7,
            "componentType" : 5123,
            "count" : 9120,
            "type" : "SCALAR"
        },
        {
            "bufferView" : 8,
            "componentType" : 5126,
            "count" : 2880,
            "max" : [
                -0.06503216177225113,
                0.5539982914924622,
                10.04371452331543
            ],
            "min" : [
                -0.0819646492600441,
                -2.241007089614868,
                -10.031015396118164
            ],
            "type" : "VEC3"
        },
        {
            "bufferView" : 9,
            "componentType" : 5126,
            "count" : 2880,
            "type" : "VEC3"
        },
        {
            "bufferView" : 10,
            "componentType" : 5126,
            "count" : 2880,
            "type" : "VEC2"
        },
        {
            "bufferView" : 11,
            "componentType" : 5123,
            "count" : 4320,
            "type" : "SCALAR"
        },
        {
            "bufferView" : 12,
            "componentType" : 5126,
            "count" : 4951,
            "max" : [
                -0.05195299908518791,
                0.6097090840339661,
                10.081757545471191
            ],
            "min" : [
                -0.09480301290750504,
                -2.2761943340301514,
                -10.082935333251953
            ],
            "type" : "VEC3"
        },
        {
            "bufferView" : 13,
            "componentType" : 5126,
            "count" : 4951,
            "type" : "VEC3"
        },
        {
            "bufferView" : 14,
            "componentType" : 5126,
            "count" : 4951,
            "type" : "VEC2"
        },
        {
            "bufferView" : 15,
            "componentType" : 5123,
            "count" : 9300,
            "type" : "SCALAR"
        }
    ],
    "bufferViews" : [
        {
            "buffer" : 0,
            "byteLength" : 4920,
            "byteOffset" : 0
        },
        {
            "buffer" : 0,
            "byteLength" : 4920,
            "byteOffset" : 4920
        },
        {
            "buffer" : 0,
            "byteLength" : 3280,
            "byteOffset" : 9840
        },
        {
            "buffer" : 0,
            "byteLength" : 1620,
            "byteOffset" : 13120
        },
        {
            "buffer" : 0,
            "byteLength" : 39516,
            "byteOffset" : 14740
        },
        {
            "buffer" : 0,
            "byteLength" : 39516,
            "byteOffset" : 54256
        },
        {
            "buffer" : 0,
            "byteLength" : 26344,
            "byteOffset" : 93772
        },
        {
            "buffer" : 0,
            "byteLength" : 18240,
            "byteOffset" : 120116
        },
        {
            "buffer" : 0,
            "byteLength" : 34560,
            "byteOffset" : 138356
        },
        {
            "buffer" : 0,
            "byteLength" : 34560,
            "byteOffset" : 172916
        },
        {
            "buffer" : 0,
            "byteLength" : 23040,
            "byteOffset" : 207476
        },
        {
            "buffer" : 0,
            "byteLength" : 8640,
            "byteOffset" : 230516
        },
        {
            "buffer" : 0,
            "byteLength" : 59412,
            "byteOffset" : 239156
        },
        {
            "buffer" : 0,
            "byteLength" : 59412,
            "byteOffset" : 298568
        },
        {
            "buffer" : 0,
            "byteLength" : 39608,
            "byteOffset" : 357980
        },
        {
            "buffer" : 0,
            "byteLength" : 18600,
            "byteOffset" : 397588
        }
    ],
    "samplers" : [
        {
            "magFilter" : 9729,
            "minFilter" : 9987
        }
    ],
    "buffers" : [
        {
            "byteLength" : 416188,
            "uri" : "Gallery.bin"
        }
    ]
}
