{
    "asset" : {
        "generator" : "Khronos glTF Blender I/O v1.8.19",
        "version" : "2.0"
    },
    "scene" : 0,
    "scenes" : [
        {
            "name" : "Scene",
            "nodes" : [
                0
            ]
        }
    ],
    "nodes" : [
        {
            "mesh" : 0,
            "name" : "house_1_3f_t1.001"
        }
    ],
    "materials" : [
        {
            "name" : "stone_wall",
            "normalTexture" : {
                "index" : 0
            },
            "pbrMetallicRoughness" : {
                "baseColorTexture" : {
                    "index" : 1
                },
                "metallicRoughnessTexture" : {
                    "index" : 2
                }
            }
        },
        {
            "name" : "stone_floor",
            "normalTexture" : {
                "index" : 3
            },
            "pbrMetallicRoughness" : {
                "baseColorTexture" : {
                    "index" : 4
                },
                "metallicRoughnessTexture" : {
                    "index" : 5
                }
            }
        },
        {
            "name" : "wood_floor",
            "normalTexture" : {
                "index" : 6
            },
            "pbrMetallicRoughness" : {
                "baseColorTexture" : {
                    "index" : 7
                },
                "metallicRoughnessTexture" : {
                    "index" : 8
                }
            }
        },
        {
            "name" : "Roof",
            "normalTexture" : {
                "index" : 9
            },
            "pbrMetallicRoughness" : {
                "baseColorTexture" : {
                    "index" : 10
                },
                "metallicFactor" : 0,
                "roughnessFactor" : 0.5
            }
        },
        {
            "alphaMode" : "BLEND",
            "doubleSided" : true,
            "name" : "glass",
            "pbrMetallicRoughness" : {
                "baseColorFactor" : [
                    0.22024983167648315,
                    0.22024983167648315,
                    0.22024983167648315,
                    0.09615382552146912
                ],
                "metallicFactor" : 0,
                "roughnessFactor" : 0
            }
        },
        {
            "name" : "Green_wood",
            "normalTexture" : {
                "index" : 11
            },
            "pbrMetallicRoughness" : {
                "baseColorTexture" : {
                    "index" : 12
                },
                "metallicFactor" : 0
            }
        }
    ],
    "meshes" : [
        {
            "name" : "Cube.064",
            "primitives" : [
                {
                    "attributes" : {
                        "POSITION" : 0,
                        "NORMAL" : 1,
                        "TEXCOORD_0" : 2
                    },
                    "indices" : 3,
                    "material" : 0
                },
                {
                    "attributes" : {
                        "POSITION" : 4,
                        "NORMAL" : 5,
                        "TEXCOORD_0" : 6
                    },
                    "indices" : 7,
                    "material" : 1
                },
                {
                    "attributes" : {
                        "POSITION" : 8,
                        "NORMAL" : 9,
                        "TEXCOORD_0" : 10
                    },
                    "indices" : 11,
                    "material" : 2
                },
                {
                    "attributes" : {
                        "POSITION" : 12,
                        "NORMAL" : 13,
                        "TEXCOORD_0" : 14
                    },
                    "indices" : 15,
                    "material" : 3
                },
                {
                    "attributes" : {
                        "POSITION" : 16,
                        "NORMAL" : 17,
                        "TEXCOORD_0" : 18
                    },
                    "indices" : 19,
                    "material" : 4
                },
                {
                    "attributes" : {
                        "POSITION" : 20,
                        "NORMAL" : 21,
                        "TEXCOORD_0" : 22
                    },
                    "indices" : 23,
                    "material" : 5
                }
            ]
        }
    ],
    "textures" : [
        {
            "sampler" : 0,
            "source" : 0
        },
        {
            "sampler" : 0,
            "source" : 1
        },
        {
            "sampler" : 0,
            "source" : 2
        },
        {
            "sampler" : 0,
            "source" : 3
        },
        {
            "sampler" : 0,
            "source" : 4
        },
        {
            "sampler" : 0,
            "source" : 5
        },
        {
            "sampler" : 0,
            "source" : 6
        },
        {
            "sampler" : 0,
            "source" : 7
        },
        {
            "sampler" : 0,
            "source" : 8
        },
        {
            "sampler" : 0,
            "source" : 9
        },
        {
            "sampler" : 0,
            "source" : 10
        },
        {
            "sampler" : 0,
            "source" : 11
        },
        {
            "sampler" : 0,
            "source" : 12
        }
    ],
    "images" : [
        {
            "mimeType" : "image/jpeg",
            "name" : "WallNormal_2048_CC0.jpg",
            "uri" : "Textures/WallNormal_2048_CC0.jpg"
        },
        {
            "mimeType" : "image/jpeg",
            "name" : "WallColor_2048_CC0.jpg",
            "uri" : "Textures/WallColor_2048_CC0.jpg"
        },
        {
            "mimeType" : "image/jpeg",
            "name" : "WallRoughness_1024_CC0.jpg",
            "uri" : "Textures/WallRoughness_1024_CC0.jpg"
        },
        {
            "mimeType" : "image/jpeg",
            "name" : "FloorNormal_2048_CC0.jpg",
            "uri" : "Textures/FloorNormal_2048_CC0.jpg"
        },
        {
            "mimeType" : "image/jpeg",
            "name" : "FloorColor_2048_CC0.jpg",
            "uri" : "Textures/FloorColor_2048_CC0.jpg"
        },
        {
            "mimeType" : "image/jpeg",
            "name" : "FloorRoughness_1024_CC0.jpg",
            "uri" : "Textures/FloorRoughness_1024_CC0.jpg"
        },
        {
            "mimeType" : "image/jpeg",
            "name" : "wood_floor_normal_CC0.jpg",
            "uri" : "Textures/wood_floor_normal_CC0.jpg"
        },
        {
            "mimeType" : "image/jpeg",
            "name" : "wood_floor_color_CC0.jpg",
            "uri" : "Textures/wood_floor_color_CC0.jpg"
        },
        {
            "mimeType" : "image/jpeg",
            "name" : "wood_floor_roughness_CC0.jpg",
            "uri" : "Textures/wood_floor_roughness_CC0.jpg"
        },
        {
            "mimeType" : "image/png",
            "name" : "1K-rooftile_6_normal.png",
            "uri" : "Textures/1K-rooftile_6_normal.png"
        },
        {
            "mimeType" : "image/png",
            "name" : "1K-rooftile_6_basecolor.png",
            "uri" : "Textures/1K-rooftile_6_basecolor.png"
        },
        {
            "mimeType" : "image/jpeg",
            "name" : "1K-green_painted_wood-normal.jpg.001",
            "uri" : "Textures/1K-green_painted_wood-normal.jpg"
        },
        {
            "mimeType" : "image/jpeg",
            "name" : "1K-green_painted_wood-diffuse.jpg.001",
            "uri" : "Textures/1K-green_painted_wood-diffuse.jpg"
        }
    ],
    "accessors" : [
        {
            "bufferView" : 0,
            "componentType" : 5126,
            "count" : 2001,
            "max" : [
                6.0400004386901855,
                10.977533340454102,
                -3.9490835666656494
            ],
            "min" : [
                -0.06535196304321289,
                0,
                -11.043682098388672
            ],
            "type" : "VEC3"
        },
        {
            "bufferView" : 1,
            "componentType" : 5126,
            "count" : 2001,
            "type" : "VEC3"
        },
        {
            "bufferView" : 2,
            "componentType" : 5126,
            "count" : 2001,
            "type" : "VEC2"
        },
        {
            "bufferView" : 3,
            "componentType" : 5123,
            "count" : 3927,
            "type" : "SCALAR"
        },
        {
            "bufferView" : 4,
            "componentType" : 5126,
            "count" : 100,
            "max" : [
                6,
                10.100000381469727,
                -4
            ],
            "min" : [
                0,
                0,
                -11
            ],
            "type" : "VEC3"
        },
        {
            "bufferView" : 5,
            "componentType" : 5126,
            "count" : 100,
            "type" : "VEC3"
        },
        {
            "bufferView" : 6,
            "componentType" : 5126,
            "count" : 100,
            "type" : "VEC2"
        },
        {
            "bufferView" : 7,
            "componentType" : 5123,
            "count" : 150,
            "type" : "SCALAR"
        },
        {
            "bufferView" : 8,
            "componentType" : 5126,
            "count" : 7426,
            "max" : [
                6.050000190734863,
                9.90000057220459,
                -4.199998378753662
            ],
            "min" : [
                -0.05000019073486328,
                0.13000041246414185,
                -10.800000190734863
            ],
            "type" : "VEC3"
        },
        {
            "bufferView" : 9,
            "componentType" : 5126,
            "count" : 7426,
            "type" : "VEC3"
        },
        {
            "bufferView" : 10,
            "componentType" : 5126,
            "count" : 7426,
            "type" : "VEC2"
        },
        {
            "bufferView" : 11,
            "componentType" : 5123,
            "count" : 11358,
            "type" : "SCALAR"
        },
        {
            "bufferView" : 12,
            "componentType" : 5126,
            "count" : 433,
            "max" : [
                4.185796737670898,
                11.151501655578613,
                -3.8102197647094727
            ],
            "min" : [
                -0.17069673538208008,
                10.135424613952637,
                -11.2344970703125
            ],
            "type" : "VEC3"
        },
        {
            "bufferView" : 13,
            "componentType" : 5126,
            "count" : 433,
            "type" : "VEC3"
        },
        {
            "bufferView" : 14,
            "componentType" : 5126,
            "count" : 433,
            "type" : "VEC2"
        },
        {
            "bufferView" : 15,
            "componentType" : 5123,
            "count" : 921,
            "type" : "SCALAR"
        },
        {
            "bufferView" : 16,
            "componentType" : 5126,
            "count" : 120,
            "max" : [
                6.034999847412109,
                8.890999794006348,
                -4.730001449584961
            ],
            "min" : [
                -0.034999847412109375,
                1.1709996461868286,
                -10.150002479553223
            ],
            "type" : "VEC3"
        },
        {
            "bufferView" : 17,
            "componentType" : 5126,
            "count" : 120,
            "type" : "VEC3"
        },
        {
            "bufferView" : 18,
            "componentType" : 5126,
            "count" : 120,
            "type" : "VEC2"
        },
        {
            "bufferView" : 19,
            "componentType" : 5123,
            "count" : 180,
            "type" : "SCALAR"
        },
        {
            "bufferView" : 20,
            "componentType" : 5126,
            "count" : 3328,
            "max" : [
                6.107407093048096,
                8.99704360961914,
                -4.4405198097229
            ],
            "min" : [
                -0.10740814357995987,
                4.4557294845581055,
                -10.739480018615723
            ],
            "type" : "VEC3"
        },
        {
            "bufferView" : 21,
            "componentType" : 5126,
            "count" : 3328,
            "type" : "VEC3"
        },
        {
            "bufferView" : 22,
            "componentType" : 5126,
            "count" : 3328,
            "type" : "VEC2"
        },
        {
            "bufferView" : 23,
            "componentType" : 5123,
            "count" : 4992,
            "type" : "SCALAR"
        }
    ],
    "bufferViews" : [
        {
            "buffer" : 0,
            "byteLength" : 24012,
            "byteOffset" : 0
        },
        {
            "buffer" : 0,
            "byteLength" : 24012,
            "byteOffset" : 24012
        },
        {
            "buffer" : 0,
            "byteLength" : 16008,
            "byteOffset" : 48024
        },
        {
            "buffer" : 0,
            "byteLength" : 7854,
            "byteOffset" : 64032
        },
        {
            "buffer" : 0,
            "byteLength" : 1200,
            "byteOffset" : 71888
        },
        {
            "buffer" : 0,
            "byteLength" : 1200,
            "byteOffset" : 73088
        },
        {
            "buffer" : 0,
            "byteLength" : 800,
            "byteOffset" : 74288
        },
        {
            "buffer" : 0,
            "byteLength" : 300,
            "byteOffset" : 75088
        },
        {
            "buffer" : 0,
            "byteLength" : 89112,
            "byteOffset" : 75388
        },
        {
            "buffer" : 0,
            "byteLength" : 89112,
            "byteOffset" : 164500
        },
        {
            "buffer" : 0,
            "byteLength" : 59408,
            "byteOffset" : 253612
        },
        {
            "buffer" : 0,
            "byteLength" : 22716,
            "byteOffset" : 313020
        },
        {
            "buffer" : 0,
            "byteLength" : 5196,
            "byteOffset" : 335736
        },
        {
            "buffer" : 0,
            "byteLength" : 5196,
            "byteOffset" : 340932
        },
        {
            "buffer" : 0,
            "byteLength" : 3464,
            "byteOffset" : 346128
        },
        {
            "buffer" : 0,
            "byteLength" : 1842,
            "byteOffset" : 349592
        },
        {
            "buffer" : 0,
            "byteLength" : 1440,
            "byteOffset" : 351436
        },
        {
            "buffer" : 0,
            "byteLength" : 1440,
            "byteOffset" : 352876
        },
        {
            "buffer" : 0,
            "byteLength" : 960,
            "byteOffset" : 354316
        },
        {
            "buffer" : 0,
            "byteLength" : 360,
            "byteOffset" : 355276
        },
        {
            "buffer" : 0,
            "byteLength" : 39936,
            "byteOffset" : 355636
        },
        {
            "buffer" : 0,
            "byteLength" : 39936,
            "byteOffset" : 395572
        },
        {
            "buffer" : 0,
            "byteLength" : 26624,
            "byteOffset" : 435508
        },
        {
            "buffer" : 0,
            "byteLength" : 9984,
            "byteOffset" : 462132
        }
    ],
    "samplers" : [
        {
            "magFilter" : 9729,
            "minFilter" : 9987
        }
    ],
    "buffers" : [
        {
            "byteLength" : 472116,
            "uri" : "house_3_floors_terrace.bin"
        }
    ]
}
