{
    "asset" : {
        "generator" : "Khronos glTF Blender I/O v1.8.19",
        "version" : "2.0"
    },
    "scene" : 0,
    "scenes" : [
        {
            "name" : "Scene",
            "nodes" : [
                0
            ]
        }
    ],
    "nodes" : [
        {
            "mesh" : 0,
            "name" : "house_1.001"
        }
    ],
    "materials" : [
        {
            "name" : "stone_wall",
            "normalTexture" : {
                "index" : 0
            },
            "pbrMetallicRoughness" : {
                "baseColorTexture" : {
                    "index" : 1
                },
                "metallicRoughnessTexture" : {
                    "index" : 2
                }
            }
        },
        {
            "name" : "stone_floor",
            "normalTexture" : {
                "index" : 3
            },
            "pbrMetallicRoughness" : {
                "baseColorTexture" : {
                    "index" : 4
                },
                "metallicRoughnessTexture" : {
                    "index" : 5
                }
            }
        },
        {
            "name" : "wood_floor",
            "normalTexture" : {
                "index" : 6
            },
            "pbrMetallicRoughness" : {
                "baseColorTexture" : {
                    "index" : 7
                },
                "metallicRoughnessTexture" : {
                    "index" : 8
                }
            }
        },
        {
            "name" : "Roof",
            "normalTexture" : {
                "index" : 9
            },
            "pbrMetallicRoughness" : {
                "baseColorTexture" : {
                    "index" : 10
                },
                "metallicFactor" : 0,
                "roughnessFactor" : 0.5
            }
        },
        {
            "name" : "Green_wood",
            "normalTexture" : {
                "index" : 11
            },
            "pbrMetallicRoughness" : {
                "baseColorTexture" : {
                    "index" : 12
                },
                "metallicFactor" : 0
            }
        },
        {
            "alphaMode" : "BLEND",
            "doubleSided" : true,
            "name" : "glass",
            "pbrMetallicRoughness" : {
                "baseColorFactor" : [
                    0.22024983167648315,
                    0.22024983167648315,
                    0.22024983167648315,
                    0.09615382552146912
                ],
                "metallicFactor" : 0,
                "roughnessFactor" : 0
            }
        }
    ],
    "meshes" : [
        {
            "name" : "Cube.040",
            "primitives" : [
                {
                    "attributes" : {
                        "POSITION" : 0,
                        "NORMAL" : 1,
                        "TEXCOORD_0" : 2
                    },
                    "indices" : 3,
                    "material" : 0
                },
                {
                    "attributes" : {
                        "POSITION" : 4,
                        "NORMAL" : 5,
                        "TEXCOORD_0" : 6
                    },
                    "indices" : 7,
                    "material" : 1
                },
                {
                    "attributes" : {
                        "POSITION" : 8,
                        "NORMAL" : 9,
                        "TEXCOORD_0" : 10
                    },
                    "indices" : 11,
                    "material" : 2
                },
                {
                    "attributes" : {
                        "POSITION" : 12,
                        "NORMAL" : 13,
                        "TEXCOORD_0" : 14
                    },
                    "indices" : 15,
                    "material" : 3
                },
                {
                    "attributes" : {
                        "POSITION" : 16,
                        "NORMAL" : 17,
                        "TEXCOORD_0" : 18
                    },
                    "indices" : 19,
                    "material" : 4
                },
                {
                    "attributes" : {
                        "POSITION" : 20,
                        "NORMAL" : 21,
                        "TEXCOORD_0" : 22
                    },
                    "indices" : 23,
                    "material" : 5
                }
            ]
        }
    ],
    "textures" : [
        {
            "sampler" : 0,
            "source" : 0
        },
        {
            "sampler" : 0,
            "source" : 1
        },
        {
            "sampler" : 0,
            "source" : 2
        },
        {
            "sampler" : 0,
            "source" : 3
        },
        {
            "sampler" : 0,
            "source" : 4
        },
        {
            "sampler" : 0,
            "source" : 5
        },
        {
            "sampler" : 0,
            "source" : 6
        },
        {
            "sampler" : 0,
            "source" : 7
        },
        {
            "sampler" : 0,
            "source" : 8
        },
        {
            "sampler" : 0,
            "source" : 9
        },
        {
            "sampler" : 0,
            "source" : 10
        },
        {
            "sampler" : 0,
            "source" : 11
        },
        {
            "sampler" : 0,
            "source" : 12
        }
    ],
    "images" : [
        {
            "mimeType" : "image/jpeg",
            "name" : "WallNormal_2048_CC0.jpg",
            "uri" : "Textures/WallNormal_2048_CC0.jpg"
        },
        {
            "mimeType" : "image/jpeg",
            "name" : "WallColor_2048_CC0.jpg",
            "uri" : "Textures/WallColor_2048_CC0.jpg"
        },
        {
            "mimeType" : "image/jpeg",
            "name" : "WallRoughness_1024_CC0.jpg",
            "uri" : "Textures/WallRoughness_1024_CC0.jpg"
        },
        {
            "mimeType" : "image/jpeg",
            "name" : "FloorNormal_2048_CC0.jpg",
            "uri" : "Textures/FloorNormal_2048_CC0.jpg"
        },
        {
            "mimeType" : "image/jpeg",
            "name" : "FloorColor_2048_CC0.jpg",
            "uri" : "Textures/FloorColor_2048_CC0.jpg"
        },
        {
            "mimeType" : "image/jpeg",
            "name" : "FloorRoughness_1024_CC0.jpg",
            "uri" : "Textures/FloorRoughness_1024_CC0.jpg"
        },
        {
            "mimeType" : "image/jpeg",
            "name" : "wood_floor_normal_CC0.jpg",
            "uri" : "Textures/wood_floor_normal_CC0.jpg"
        },
        {
            "mimeType" : "image/jpeg",
            "name" : "wood_floor_color_CC0.jpg",
            "uri" : "Textures/wood_floor_color_CC0.jpg"
        },
        {
            "mimeType" : "image/jpeg",
            "name" : "wood_floor_roughness_CC0.jpg",
            "uri" : "Textures/wood_floor_roughness_CC0.jpg"
        },
        {
            "mimeType" : "image/png",
            "name" : "1K-rooftile_6_normal.png",
            "uri" : "Textures/1K-rooftile_6_normal.png"
        },
        {
            "mimeType" : "image/png",
            "name" : "1K-rooftile_6_basecolor.png",
            "uri" : "Textures/1K-rooftile_6_basecolor.png"
        },
        {
            "mimeType" : "image/jpeg",
            "name" : "1K-green_painted_wood-normal.jpg.001",
            "uri" : "Textures/1K-green_painted_wood-normal.jpg"
        },
        {
            "mimeType" : "image/jpeg",
            "name" : "1K-green_painted_wood-diffuse.jpg.001",
            "uri" : "Textures/1K-green_painted_wood-diffuse.jpg"
        }
    ],
    "accessors" : [
        {
            "bufferView" : 0,
            "componentType" : 5126,
            "count" : 1967,
            "max" : [
                8.0600004196167,
                8.71593952178955,
                0.0486903190612793
            ],
            "min" : [
                -0.03782081604003906,
                0,
                -11.038419723510742
            ],
            "type" : "VEC3"
        },
        {
            "bufferView" : 1,
            "componentType" : 5126,
            "count" : 1967,
            "type" : "VEC3"
        },
        {
            "bufferView" : 2,
            "componentType" : 5126,
            "count" : 1967,
            "type" : "VEC2"
        },
        {
            "bufferView" : 3,
            "componentType" : 5123,
            "count" : 3927,
            "type" : "SCALAR"
        },
        {
            "bufferView" : 4,
            "componentType" : 5126,
            "count" : 126,
            "max" : [
                8,
                7,
                0
            ],
            "min" : [
                0,
                0,
                -11
            ],
            "type" : "VEC3"
        },
        {
            "bufferView" : 5,
            "componentType" : 5126,
            "count" : 126,
            "type" : "VEC3"
        },
        {
            "bufferView" : 6,
            "componentType" : 5126,
            "count" : 126,
            "type" : "VEC2"
        },
        {
            "bufferView" : 7,
            "componentType" : 5123,
            "count" : 192,
            "type" : "SCALAR"
        },
        {
            "bufferView" : 8,
            "componentType" : 5126,
            "count" : 4874,
            "max" : [
                8.0600004196167,
                7.03000020980835,
                0.020000457763671875
            ],
            "min" : [
                -1.4901161193847656e-08,
                0.13000041246414185,
                -11
            ],
            "type" : "VEC3"
        },
        {
            "bufferView" : 9,
            "componentType" : 5126,
            "count" : 4874,
            "type" : "VEC3"
        },
        {
            "bufferView" : 10,
            "componentType" : 5126,
            "count" : 4874,
            "type" : "VEC2"
        },
        {
            "bufferView" : 11,
            "componentType" : 5123,
            "count" : 7446,
            "type" : "SCALAR"
        },
        {
            "bufferView" : 12,
            "componentType" : 5126,
            "count" : 434,
            "max" : [
                8.276956558227539,
                9.056204795837402,
                0.32029294967651367
            ],
            "min" : [
                -0.2438640594482422,
                7.0688676834106445,
                -11.411632537841797
            ],
            "type" : "VEC3"
        },
        {
            "bufferView" : 13,
            "componentType" : 5126,
            "count" : 434,
            "type" : "VEC3"
        },
        {
            "bufferView" : 14,
            "componentType" : 5126,
            "count" : 434,
            "type" : "VEC2"
        },
        {
            "bufferView" : 15,
            "componentType" : 5123,
            "count" : 921,
            "type" : "SCALAR"
        },
        {
            "bufferView" : 16,
            "componentType" : 5126,
            "count" : 2480,
            "max" : [
                8.077406883239746,
                5.697043418884277,
                -1.8488234281539917
            ],
            "min" : [
                -0.16603833436965942,
                1.055729866027832,
                -10.829480171203613
            ],
            "type" : "VEC3"
        },
        {
            "bufferView" : 17,
            "componentType" : 5126,
            "count" : 2480,
            "type" : "VEC3"
        },
        {
            "bufferView" : 18,
            "componentType" : 5126,
            "count" : 2480,
            "type" : "VEC2"
        },
        {
            "bufferView" : 19,
            "componentType" : 5123,
            "count" : 3720,
            "type" : "SCALAR"
        },
        {
            "bufferView" : 20,
            "componentType" : 5126,
            "count" : 80,
            "max" : [
                8.03499984741211,
                5.591000080108643,
                -2.5299997329711914
            ],
            "min" : [
                0.0149993896484375,
                1.1709998846054077,
                -10.15000057220459
            ],
            "type" : "VEC3"
        },
        {
            "bufferView" : 21,
            "componentType" : 5126,
            "count" : 80,
            "type" : "VEC3"
        },
        {
            "bufferView" : 22,
            "componentType" : 5126,
            "count" : 80,
            "type" : "VEC2"
        },
        {
            "bufferView" : 23,
            "componentType" : 5123,
            "count" : 120,
            "type" : "SCALAR"
        }
    ],
    "bufferViews" : [
        {
            "buffer" : 0,
            "byteLength" : 23604,
            "byteOffset" : 0
        },
        {
            "buffer" : 0,
            "byteLength" : 23604,
            "byteOffset" : 23604
        },
        {
            "buffer" : 0,
            "byteLength" : 15736,
            "byteOffset" : 47208
        },
        {
            "buffer" : 0,
            "byteLength" : 7854,
            "byteOffset" : 62944
        },
        {
            "buffer" : 0,
            "byteLength" : 1512,
            "byteOffset" : 70800
        },
        {
            "buffer" : 0,
            "byteLength" : 1512,
            "byteOffset" : 72312
        },
        {
            "buffer" : 0,
            "byteLength" : 1008,
            "byteOffset" : 73824
        },
        {
            "buffer" : 0,
            "byteLength" : 384,
            "byteOffset" : 74832
        },
        {
            "buffer" : 0,
            "byteLength" : 58488,
            "byteOffset" : 75216
        },
        {
            "buffer" : 0,
            "byteLength" : 58488,
            "byteOffset" : 133704
        },
        {
            "buffer" : 0,
            "byteLength" : 38992,
            "byteOffset" : 192192
        },
        {
            "buffer" : 0,
            "byteLength" : 14892,
            "byteOffset" : 231184
        },
        {
            "buffer" : 0,
            "byteLength" : 5208,
            "byteOffset" : 246076
        },
        {
            "buffer" : 0,
            "byteLength" : 5208,
            "byteOffset" : 251284
        },
        {
            "buffer" : 0,
            "byteLength" : 3472,
            "byteOffset" : 256492
        },
        {
            "buffer" : 0,
            "byteLength" : 1842,
            "byteOffset" : 259964
        },
        {
            "buffer" : 0,
            "byteLength" : 29760,
            "byteOffset" : 261808
        },
        {
            "buffer" : 0,
            "byteLength" : 29760,
            "byteOffset" : 291568
        },
        {
            "buffer" : 0,
            "byteLength" : 19840,
            "byteOffset" : 321328
        },
        {
            "buffer" : 0,
            "byteLength" : 7440,
            "byteOffset" : 341168
        },
        {
            "buffer" : 0,
            "byteLength" : 960,
            "byteOffset" : 348608
        },
        {
            "buffer" : 0,
            "byteLength" : 960,
            "byteOffset" : 349568
        },
        {
            "buffer" : 0,
            "byteLength" : 640,
            "byteOffset" : 350528
        },
        {
            "buffer" : 0,
            "byteLength" : 240,
            "byteOffset" : 351168
        }
    ],
    "samplers" : [
        {
            "magFilter" : 9729,
            "minFilter" : 9987
        }
    ],
    "buffers" : [
        {
            "byteLength" : 351408,
            "uri" : "house_with_terrace_2.bin"
        }
    ]
}
