{
    "asset" : {
        "generator" : "Khronos glTF Blender I/O v1.7.33",
        "version" : "2.0"
    },
    "scene" : 0,
    "scenes" : [
        {
            "name" : "Scene",
            "nodes" : [
                0
            ]
        }
    ],
    "nodes" : [
        {
            "mesh" : 0,
            "name" : "Cylinder.001",
            "translation" : [
                0,
                3.562889814376831,
                0
            ]
        }
    ],
    "materials" : [
        {
            "name" : "Wall",
            "normalTexture" : {
                "index" : 0
            },
            "pbrMetallicRoughness" : {
                "baseColorTexture" : {
                    "index" : 1
                },
                "metallicFactor" : 0,
                "roughnessFactor" : 0.5
            }
        }
    ],
    "meshes" : [
        {
            "name" : "Cylinder.003",
            "primitives" : [
                {
                    "attributes" : {
                        "POSITION" : 0,
                        "NORMAL" : 1,
                        "TEXCOORD_0" : 2
                    },
                    "indices" : 3,
                    "material" : 0
                }
            ]
        }
    ],
    "textures" : [
        {
            "sampler" : 0,
            "source" : 0
        },
        {
            "sampler" : 0,
            "source" : 1
        }
    ],
    "images" : [
        {
            "mimeType" : "image/jpeg",
            "name" : "WallNormal_2048_CC0",
            "uri" : "Textures/WallNormal_2048_CC0.jpg"
        },
        {
            "mimeType" : "image/jpeg",
            "name" : "WallColor_2048_CC0",
            "uri" : "Textures/WallColor_2048_CC0.jpg"
        }
    ],
    "accessors" : [
        {
            "bufferView" : 0,
            "componentType" : 5126,
            "count" : 377,
            "max" : [
                0.5127153396606445,
                4.438368320465088,
                0.4942741394042969
            ],
            "min" : [
                -0.4998798370361328,
                -3.5688982009887695,
                -0.5183200836181641
            ],
            "type" : "VEC3"
        },
        {
            "bufferView" : 1,
            "componentType" : 5126,
            "count" : 377,
            "type" : "VEC3"
        },
        {
            "bufferView" : 2,
            "componentType" : 5126,
            "count" : 377,
            "type" : "VEC2"
        },
        {
            "bufferView" : 3,
            "componentType" : 5123,
            "count" : 1014,
            "type" : "SCALAR"
        }
    ],
    "bufferViews" : [
        {
            "buffer" : 0,
            "byteLength" : 4524,
            "byteOffset" : 0
        },
        {
            "buffer" : 0,
            "byteLength" : 4524,
            "byteOffset" : 4524
        },
        {
            "buffer" : 0,
            "byteLength" : 3016,
            "byteOffset" : 9048
        },
        {
            "buffer" : 0,
            "byteLength" : 2028,
            "byteOffset" : 12064
        }
    ],
    "samplers" : [
        {
            "magFilter" : 9729,
            "minFilter" : 9987
        }
    ],
    "buffers" : [
        {
            "byteLength" : 14092,
            "uri" : "Pillar_1.bin"
        }
    ]
}
