{
    "asset" : {
        "generator" : "Khronos glTF Blender I/O v1.7.33",
        "version" : "2.0"
    },
    "scene" : 0,
    "scenes" : [
        {
            "name" : "Scene",
            "nodes" : [
                0
            ]
        }
    ],
    "nodes" : [
        {
            "mesh" : 0,
            "name" : "Tower",
            "rotation" : [
                0,
                0.37934011220932007,
                0,
                0.9252573251724243
            ],
            "scale" : [
                2.7632429599761963,
                1.9271644353866577,
                2.7433922290802
            ],
            "translation" : [
                0,
                6.334330081939697,
                0
            ]
        }
    ],
    "materials" : [
        {
            "name" : "Wall",
            "normalTexture" : {
                "index" : 0
            },
            "pbrMetallicRoughness" : {
                "baseColorTexture" : {
                    "index" : 1
                },
                "metallicFactor" : 0
            }
        },
        {
            "name" : "Floor",
            "normalTexture" : {
                "index" : 2
            },
            "pbrMetallicRoughness" : {
                "baseColorTexture" : {
                    "index" : 3
                },
                "metallicFactor" : 0,
                "roughnessFactor" : 0.5
            }
        }
    ],
    "meshes" : [
        {
            "name" : "Cube.003",
            "primitives" : [
                {
                    "attributes" : {
                        "POSITION" : 0,
                        "NORMAL" : 1,
                        "TEXCOORD_0" : 2
                    },
                    "indices" : 3,
                    "material" : 0
                },
                {
                    "attributes" : {
                        "POSITION" : 4,
                        "NORMAL" : 5,
                        "TEXCOORD_0" : 6
                    },
                    "indices" : 7,
                    "material" : 1
                }
            ]
        }
    ],
    "textures" : [
        {
            "sampler" : 0,
            "source" : 0
        },
        {
            "sampler" : 0,
            "source" : 1
        },
        {
            "sampler" : 0,
            "source" : 2
        },
        {
            "sampler" : 0,
            "source" : 3
        }
    ],
    "images" : [
        {
            "mimeType" : "image/jpeg",
            "name" : "WallNormal_2048_CC0",
            "uri" : "Textures/WallNormal_2048_CC0.jpg"
        },
        {
            "mimeType" : "image/jpeg",
            "name" : "WallColor_2048_CC0",
            "uri" : "Textures/WallColor_2048_CC0.jpg"
        },
        {
            "mimeType" : "image/jpeg",
            "name" : "FloorNormal_2048_CC0",
            "uri" : "Textures/FloorNormal_2048_CC0.jpg"
        },
        {
            "mimeType" : "image/jpeg",
            "name" : "FloorColor_2048_CC0",
            "uri" : "Textures/FloorColor_2048_CC0.jpg"
        }
    ],
    "accessors" : [
        {
            "bufferView" : 0,
            "componentType" : 5126,
            "count" : 1714,
            "max" : [
                1.8827942609786987,
                3.2879090309143066,
                1.87131929397583
            ],
            "min" : [
                -1.8559280633926392,
                -3.4596354961395264,
                -1.894456148147583
            ],
            "type" : "VEC3"
        },
        {
            "bufferView" : 1,
            "componentType" : 5126,
            "count" : 1714,
            "type" : "VEC3"
        },
        {
            "bufferView" : 2,
            "componentType" : 5126,
            "count" : 1714,
            "type" : "VEC2"
        },
        {
            "bufferView" : 3,
            "componentType" : 5123,
            "count" : 4014,
            "type" : "SCALAR"
        },
        {
            "bufferView" : 4,
            "componentType" : 5126,
            "count" : 70,
            "max" : [
                1.7439771890640259,
                2.4207682609558105,
                1.7314977645874023
            ],
            "min" : [
                -1.7171090841293335,
                1.9119505882263184,
                -1.7546324729919434
            ],
            "type" : "VEC3"
        },
        {
            "bufferView" : 5,
            "componentType" : 5126,
            "count" : 70,
            "type" : "VEC3"
        },
        {
            "bufferView" : 6,
            "componentType" : 5126,
            "count" : 70,
            "type" : "VEC2"
        },
        {
            "bufferView" : 7,
            "componentType" : 5123,
            "count" : 210,
            "type" : "SCALAR"
        }
    ],
    "bufferViews" : [
        {
            "buffer" : 0,
            "byteLength" : 20568,
            "byteOffset" : 0
        },
        {
            "buffer" : 0,
            "byteLength" : 20568,
            "byteOffset" : 20568
        },
        {
            "buffer" : 0,
            "byteLength" : 13712,
            "byteOffset" : 41136
        },
        {
            "buffer" : 0,
            "byteLength" : 8028,
            "byteOffset" : 54848
        },
        {
            "buffer" : 0,
            "byteLength" : 840,
            "byteOffset" : 62876
        },
        {
            "buffer" : 0,
            "byteLength" : 840,
            "byteOffset" : 63716
        },
        {
            "buffer" : 0,
            "byteLength" : 560,
            "byteOffset" : 64556
        },
        {
            "buffer" : 0,
            "byteLength" : 420,
            "byteOffset" : 65116
        }
    ],
    "samplers" : [
        {
            "magFilter" : 9729,
            "minFilter" : 9987
        }
    ],
    "buffers" : [
        {
            "byteLength" : 65536,
            "uri" : "Tower.bin"
        }
    ]
}
